<?xml version="1.0" encoding="utf-8"?>
<!-- Generator: Adobe Illustrator 27.5.0, SVG Export Plug-In . SVG Version: 6.00 Build 0)  -->
<svg version="1.1" id="Livello_1" xmlns="http://www.w3.org/2000/svg" xmlns:xlink="http://www.w3.org/1999/xlink" x="0px" y="0px"
	 viewBox="0 0 147 800" style="enable-background:new 0 0 147 800;" xml:space="preserve">
<style type="text/css">
	.st0{fill:#F2F2F2;}
	.st1{fill:#CCCCCC;}
	.st2{fill:#E6E6E6;}
	.st3{fill:#70B1FD;}
	.st4{fill:#3F84C9;}
	.st5{fill:#666666;}
	.st6{clip-path:url(#SVGID_00000158027989916963890850000013586092120138720393_);fill:#93CCFB;}
	.st7{clip-path:url(#SVGID_00000158027989916963890850000013586092120138720393_);fill:#94CCFB;}
	.st8{clip-path:url(#SVGID_00000158027989916963890850000013586092120138720393_);fill:#95CDFB;}
	.st9{clip-path:url(#SVGID_00000158027989916963890850000013586092120138720393_);fill:#96CDFB;}
	.st10{clip-path:url(#SVGID_00000158027989916963890850000013586092120138720393_);fill:#97CEFB;}
	.st11{clip-path:url(#SVGID_00000158027989916963890850000013586092120138720393_);fill:#98CEFB;}
	.st12{clip-path:url(#SVGID_00000158027989916963890850000013586092120138720393_);fill:#99CFFB;}
	.st13{clip-path:url(#SVGID_00000158027989916963890850000013586092120138720393_);fill:#9ACFFB;}
	.st14{clip-path:url(#SVGID_00000158027989916963890850000013586092120138720393_);fill:#9BD0FB;}
	.st15{clip-path:url(#SVGID_00000158027989916963890850000013586092120138720393_);fill:#9CD0FB;}
	.st16{clip-path:url(#SVGID_00000158027989916963890850000013586092120138720393_);fill:#9DD1FB;}
	.st17{clip-path:url(#SVGID_00000158027989916963890850000013586092120138720393_);fill:#9ED1FB;}
	.st18{clip-path:url(#SVGID_00000158027989916963890850000013586092120138720393_);fill:#9FD2FB;}
	.st19{clip-path:url(#SVGID_00000158027989916963890850000013586092120138720393_);fill:#A0D2FB;}
	.st20{clip-path:url(#SVGID_00000158027989916963890850000013586092120138720393_);fill:#A1D3FB;}
	.st21{clip-path:url(#SVGID_00000158027989916963890850000013586092120138720393_);fill:#A2D3FB;}
	.st22{clip-path:url(#SVGID_00000158027989916963890850000013586092120138720393_);fill:#A3D4FC;}
	.st23{clip-path:url(#SVGID_00000158027989916963890850000013586092120138720393_);fill:#A4D4FC;}
	.st24{clip-path:url(#SVGID_00000158027989916963890850000013586092120138720393_);fill:#A5D5FC;}
	.st25{clip-path:url(#SVGID_00000158027989916963890850000013586092120138720393_);fill:#A6D5FC;}
	.st26{clip-path:url(#SVGID_00000158027989916963890850000013586092120138720393_);fill:#A7D6FC;}
	.st27{clip-path:url(#SVGID_00000158027989916963890850000013586092120138720393_);fill:#A8D6FC;}
	.st28{clip-path:url(#SVGID_00000158027989916963890850000013586092120138720393_);fill:#A9D6FC;}
	.st29{clip-path:url(#SVGID_00000158027989916963890850000013586092120138720393_);fill:#AAD7FC;}
	.st30{clip-path:url(#SVGID_00000158027989916963890850000013586092120138720393_);fill:#ABD7FC;}
	.st31{clip-path:url(#SVGID_00000158027989916963890850000013586092120138720393_);fill:#ACD8FC;}
	.st32{clip-path:url(#SVGID_00000158027989916963890850000013586092120138720393_);fill:#ADD8FC;}
	.st33{clip-path:url(#SVGID_00000158027989916963890850000013586092120138720393_);fill:#AED9FC;}
	.st34{clip-path:url(#SVGID_00000158027989916963890850000013586092120138720393_);fill:#AFD9FC;}
	.st35{clip-path:url(#SVGID_00000158027989916963890850000013586092120138720393_);fill:#B0DAFC;}
	.st36{clip-path:url(#SVGID_00000158027989916963890850000013586092120138720393_);fill:#B1DAFC;}
	.st37{clip-path:url(#SVGID_00000158027989916963890850000013586092120138720393_);fill:#B2DBFC;}
	.st38{clip-path:url(#SVGID_00000158027989916963890850000013586092120138720393_);fill:#B4DBFC;}
	.st39{clip-path:url(#SVGID_00000158027989916963890850000013586092120138720393_);fill:#B5DCFC;}
	.st40{clip-path:url(#SVGID_00000158027989916963890850000013586092120138720393_);fill:#B6DCFC;}
	.st41{clip-path:url(#SVGID_00000158027989916963890850000013586092120138720393_);fill:#B7DDFC;}
	.st42{clip-path:url(#SVGID_00000158027989916963890850000013586092120138720393_);fill:#B8DDFC;}
	.st43{clip-path:url(#SVGID_00000158027989916963890850000013586092120138720393_);fill:#B9DEFC;}
	.st44{clip-path:url(#SVGID_00000158027989916963890850000013586092120138720393_);fill:#BADEFC;}
	.st45{clip-path:url(#SVGID_00000158027989916963890850000013586092120138720393_);fill:#BBDFFC;}
	.st46{clip-path:url(#SVGID_00000158027989916963890850000013586092120138720393_);fill:#BCDFFC;}
	.st47{clip-path:url(#SVGID_00000158027989916963890850000013586092120138720393_);fill:#BDE0FC;}
	.st48{clip-path:url(#SVGID_00000158027989916963890850000013586092120138720393_);fill:#BEE0FC;}
	.st49{clip-path:url(#SVGID_00000158027989916963890850000013586092120138720393_);fill:#BFE0FC;}
	.st50{clip-path:url(#SVGID_00000158027989916963890850000013586092120138720393_);fill:#C0E1FC;}
	.st51{clip-path:url(#SVGID_00000158027989916963890850000013586092120138720393_);fill:#C1E1FC;}
	.st52{clip-path:url(#SVGID_00000158027989916963890850000013586092120138720393_);fill:#C2E2FC;}
	.st53{clip-path:url(#SVGID_00000158027989916963890850000013586092120138720393_);fill:#C3E2FC;}
	.st54{clip-path:url(#SVGID_00000158027989916963890850000013586092120138720393_);fill:#C4E3FD;}
	.st55{clip-path:url(#SVGID_00000158027989916963890850000013586092120138720393_);fill:#C5E3FD;}
	.st56{clip-path:url(#SVGID_00000158027989916963890850000013586092120138720393_);fill:#C6E4FD;}
	.st57{clip-path:url(#SVGID_00000158027989916963890850000013586092120138720393_);fill:#C7E4FD;}
	.st58{clip-path:url(#SVGID_00000158027989916963890850000013586092120138720393_);fill:#C8E5FD;}
	.st59{clip-path:url(#SVGID_00000158027989916963890850000013586092120138720393_);fill:#C9E5FD;}
	.st60{clip-path:url(#SVGID_00000158027989916963890850000013586092120138720393_);fill:#CAE6FD;}
	.st61{clip-path:url(#SVGID_00000158027989916963890850000013586092120138720393_);fill:#CBE6FD;}
	.st62{clip-path:url(#SVGID_00000158027989916963890850000013586092120138720393_);fill:#CCE7FD;}
	.st63{clip-path:url(#SVGID_00000158027989916963890850000013586092120138720393_);fill:#CDE7FD;}
	.st64{clip-path:url(#SVGID_00000158027989916963890850000013586092120138720393_);fill:#CEE8FD;}
	.st65{clip-path:url(#SVGID_00000158027989916963890850000013586092120138720393_);fill:#CFE8FD;}
	.st66{clip-path:url(#SVGID_00000158027989916963890850000013586092120138720393_);fill:#D0E9FD;}
	.st67{clip-path:url(#SVGID_00000158027989916963890850000013586092120138720393_);fill:#D1E9FD;}
	.st68{clip-path:url(#SVGID_00000158027989916963890850000013586092120138720393_);fill:#D2EAFD;}
	.st69{clip-path:url(#SVGID_00000158027989916963890850000013586092120138720393_);fill:#D3EAFD;}
	.st70{fill:#DDDDDD;}
	.st71{fill:#B3B3B3;}
	.st72{fill-rule:evenodd;clip-rule:evenodd;fill:#666666;}
	.st73{fill:#3B84CC;}
	.st74{fill:#316DB2;}
	.st75{fill:#53A4F4;}
	.st76{fill:#2E75BC;}
</style>
<g>
	<g>
		<g>
			<path class="st0" d="M142.89,0H4.11C1.99,0,0.26,1.73,0.26,3.85v656.34h146.48V3.85C146.74,1.73,145.01,0,142.89,0z"/>
		</g>
		<g>
			<path class="st1" d="M25.81,751.77v27.76c0,4.26,3.45,7.71,7.71,7.71h10.17l18.18,9.89c3.46,1.88,7.34,2.87,11.28,2.87
				c3.94,0,7.82-0.99,11.28-2.87l18.18-9.89h10.86c4.26,0,7.71-3.45,7.71-7.71v-27.76H25.81z M102.94,778.15H91.6
				c-2.58,7.53-9.7,12.95-18.1,12.95c-8.4,0-15.52-5.42-18.1-12.95H44.06v-12.41H55.4c2.58-7.53,9.7-12.95,18.1-12.95
				c8.4,0,15.52,5.42,18.1,12.95h11.33V778.15z"/>
		</g>
		<g>
			<path class="st2" d="M0.26,660.19v91.01h1.95v7.55c0,0.53,0.43,0.96,0.96,0.96h7.53c0.34,0,0.66-0.18,0.83-0.48l4.05-6.97
				c0.17-0.3,0.49-0.48,0.83-0.48h50.39l5.08,7.79c0.76,1.17,2.47,1.17,3.23,0l5.08-7.79h50.39c0.34,0,0.66,0.18,0.83,0.48
				l4.05,6.97c0.17,0.3,0.49,0.48,0.83,0.48h7.53c0.53,0,0.96-0.43,0.96-0.96v-7.55h1.95v-91.01H0.26z"/>
		</g>
	</g>
	<g>
		<circle class="st3" cx="31.65" cy="58.8" r="17.35"/>
	</g>
	<g>
		<path class="st4" d="M20.38,58.8c0-8.54,6.18-15.62,14.31-17.06c-0.99-0.18-2-0.28-3.04-0.28c-9.58,0-17.35,7.77-17.35,17.35
			s7.77,17.35,17.35,17.35c1.04,0,2.05-0.11,3.04-0.28C26.56,74.42,20.38,67.34,20.38,58.8z"/>
	</g>
	<g>
		<circle class="st3" cx="73.5" cy="58.8" r="17.35"/>
	</g>
	<g>
		<circle class="st3" cx="115.35" cy="58.8" r="17.35"/>
	</g>
	<g>
		<g>
			<path class="st5" d="M35.26,99.08h-7.14l-1.83,4.03h-2.76l8.32-17.69l7.92,17.69h-2.76L35.26,99.08z M34.23,96.68l-2.48-5.66
				l-2.58,5.66H34.23z"/>
		</g>
	</g>
	<g>
		<g>
			<path class="st5" d="M68.49,90.11c-0.15-0.38-0.38-0.73-0.75-1.05c-0.53-0.43-1.08-0.6-1.8-0.6c-1.55,0-2.36,0.93-2.36,2
				c0,0.5,0.18,1.38,1.8,2.03l1.68,0.68c3.08,1.25,3.93,3.01,3.93,4.91c0,3.18-2.25,5.36-5.39,5.36c-1.93,0-3.08-0.73-3.93-1.68
				c-0.9-1-1.3-2.1-1.4-3.26l2.53-0.55c0,0.83,0.3,1.6,0.7,2.13c0.48,0.6,1.18,1,2.18,1c1.55,0,2.76-1.13,2.76-2.81
				c0-1.7-1.3-2.41-2.41-2.86l-1.6-0.68c-1.38-0.58-3.41-1.73-3.41-4.23c0-2.25,1.75-4.41,4.89-4.41c1.8,0,2.83,0.68,3.36,1.13
				c0.45,0.4,0.93,0.98,1.28,1.68L68.49,90.11z"/>
		</g>
		<g>
			<path class="st5" d="M86.58,90.31c-1.85-1.68-3.58-1.85-4.54-1.85c-3.63,0-6.09,2.68-6.09,6.36c0,3.53,2.56,6.26,6.11,6.26
				c2,0,3.56-1.03,4.51-1.93v3.03c-1.68,1-3.43,1.25-4.59,1.25c-3.03,0-4.94-1.38-5.91-2.31c-1.95-1.83-2.68-3.96-2.68-6.31
				c0-3.08,1.28-5.21,2.68-6.54c1.73-1.63,3.73-2.18,6.04-2.18c1.53,0,3.01,0.28,4.46,1.2V90.31z"/>
		</g>
	</g>
	<g>
		<g>
			<path class="st5" d="M113.3,86.4c2.15,0,3.51,0.28,4.61,1.3c0.9,0.85,1.33,1.93,1.33,3.31c0,0.65-0.1,1.33-0.5,1.98
				c-0.38,0.65-0.88,0.98-1.25,1.15c0.3,0.08,1.33,0.35,2.15,1.2c0.9,0.95,1.1,2.1,1.1,3.13c0,1.2-0.3,2.16-1.1,3.01
				c-1.33,1.4-3.41,1.63-4.69,1.63h-4.18V86.4H113.3z M113.32,93.59h0.78c0.63,0,1.48-0.08,2.08-0.65c0.58-0.55,0.65-1.33,0.65-1.9
				c0-0.5-0.07-1.1-0.6-1.6c-0.58-0.55-1.3-0.63-2.03-0.63h-0.88V93.59z M113.32,100.71h1.55c0.73,0,1.88-0.13,2.53-0.65
				c0.5-0.4,0.83-1.1,0.83-1.85c0-0.68-0.25-1.33-0.68-1.75c-0.7-0.68-1.73-0.75-2.63-0.75h-1.6V100.71z"/>
		</g>
	</g>
	<g>
		<g>
			<path class="st2" d="M0.26,542.86V208.93c0-9.54,7.73-17.27,17.27-17.27h111.93c9.54,0,17.27,7.73,17.27,17.27v333.93
				c0,9.54-7.73,17.27-17.27,17.27H17.53C7.99,560.14,0.26,552.4,0.26,542.86z"/>
		</g>
	</g>
	<g>
		<g>
			<defs>
				<path id="SVGID_1_" d="M99.76,477.39H47.24c-1.66,0-3-1.34-3-3v-202.9c0-1.66,1.34-3,3-3h52.52c1.66,0,3,1.34,3,3v202.9
					C102.76,476.04,101.42,477.39,99.76,477.39z"/>
			</defs>
			<clipPath id="SVGID_00000118388498265948967440000003729573698852726690_">
				<use xlink:href="#SVGID_1_"  style="overflow:visible;"/>
			</clipPath>
			
				<rect x="44.24" y="268.48" style="clip-path:url(#SVGID_00000118388498265948967440000003729573698852726690_);fill:#93CCFB;" width="58.52" height="208.9"/>
			<path style="clip-path:url(#SVGID_00000118388498265948967440000003729573698852726690_);fill:#93CCFB;" d="M103.72,372.93v54.24
				v13.21h6.34c-2.17,1.18-4.41,2.26-6.7,3.23c-9.18,3.88-19.27,6.03-29.86,6.03s-20.68-2.15-29.86-6.03
				c-2.29-0.97-4.53-2.05-6.7-3.23h6.34V305.49h-6.34c2.17-1.18,4.41-2.26,6.7-3.23c9.18-3.88,19.27-6.03,29.86-6.03
				s20.68,2.15,29.86,6.03c2.29,0.97,4.53,2.05,6.7,3.23h-6.34V372.93z"/>
			<path style="clip-path:url(#SVGID_00000118388498265948967440000003729573698852726690_);fill:#94CCFB;" d="M103.72,372.93v53.39
				v13h5.77c-2.14,1.16-4.34,2.22-6.6,3.18c-9.03,3.82-18.96,5.93-29.39,5.93s-20.36-2.11-29.39-5.93c-2.26-0.96-4.46-2.02-6.6-3.18
				h5.77V306.54h-5.77c2.14-1.16,4.34-2.22,6.6-3.18c9.03-3.82,18.96-5.93,29.39-5.93s20.36,2.11,29.39,5.93
				c2.26,0.96,4.46,2.02,6.6,3.18h-5.77V372.93z"/>
			<path style="clip-path:url(#SVGID_00000118388498265948967440000003729573698852726690_);fill:#95CDFB;" d="M103.72,372.93v52.54
				v12.8h5.2c-2.11,1.14-4.27,2.19-6.5,3.13c-8.89,3.76-18.66,5.84-28.92,5.84s-20.03-2.08-28.92-5.84
				c-2.22-0.94-4.39-1.99-6.5-3.13h5.2V307.6h-5.2c2.11-1.14,4.27-2.19,6.5-3.13c8.89-3.76,18.66-5.84,28.92-5.84
				s20.03,2.08,28.92,5.84c2.22,0.94,4.39,1.99,6.5,3.13h-5.2V372.93z"/>
			<path style="clip-path:url(#SVGID_00000118388498265948967440000003729573698852726690_);fill:#96CDFB;" d="M103.72,372.93v51.7
				v12.59h4.63c-2.07,1.13-4.2,2.15-6.39,3.08c-8.75,3.7-18.36,5.75-28.46,5.75S53.79,444,45.04,440.3
				c-2.19-0.92-4.32-1.95-6.39-3.08h4.63V308.65h-4.63c2.07-1.13,4.2-2.15,6.39-3.08c8.75-3.7,18.36-5.75,28.46-5.75
				s19.71,2.05,28.46,5.75c2.19,0.92,4.32,1.95,6.39,3.08h-4.63V372.93z"/>
			<path style="clip-path:url(#SVGID_00000118388498265948967440000003729573698852726690_);fill:#97CEFB;" d="M103.72,372.93v50.85
				v12.38h4.06c-2.04,1.11-4.14,2.12-6.29,3.03c-8.6,3.64-18.06,5.65-27.99,5.65s-19.39-2.01-27.99-5.65
				c-2.15-0.91-4.25-1.92-6.29-3.03h4.06V309.7h-4.06c2.04-1.11,4.14-2.12,6.29-3.03c8.6-3.64,18.06-5.65,27.99-5.65
				s19.39,2.01,27.99,5.65c2.15,0.91,4.25,1.92,6.29,3.03h-4.06V372.93z"/>
			<path style="clip-path:url(#SVGID_00000118388498265948967440000003729573698852726690_);fill:#98CEFB;" d="M103.72,372.93v50
				v12.18h3.49c-2,1.09-4.07,2.08-6.18,2.98c-8.46,3.58-17.76,5.56-27.52,5.56s-19.06-1.98-27.52-5.56
				c-2.12-0.89-4.18-1.89-6.18-2.98h3.49V310.76h-3.49c2-1.09,4.07-2.08,6.18-2.98c8.46-3.58,17.76-5.56,27.52-5.56
				s19.06,1.98,27.52,5.56c2.12,0.89,4.18,1.89,6.18,2.98h-3.49V372.93z"/>
			<path style="clip-path:url(#SVGID_00000118388498265948967440000003729573698852726690_);fill:#99CFFB;" d="M103.72,372.93v49.15
				v11.97h2.91c-1.97,1.07-4,2.05-6.08,2.93c-8.32,3.52-17.46,5.46-27.06,5.46s-18.74-1.95-27.06-5.46
				c-2.08-0.88-4.11-1.86-6.08-2.93h2.91V311.81h-2.91c1.97-1.07,4-2.05,6.08-2.93c8.32-3.52,17.46-5.46,27.06-5.46
				s18.74,1.95,27.06,5.46c2.08,0.88,4.11,1.86,6.08,2.93h-2.91V372.93z"/>
			<path style="clip-path:url(#SVGID_00000118388498265948967440000003729573698852726690_);fill:#9ACFFB;" d="M103.72,372.93v48.31
				v11.76h2.34c-1.94,1.05-3.93,2.01-5.97,2.88c-8.17,3.46-17.16,5.37-26.59,5.37s-18.42-1.91-26.59-5.37
				c-2.04-0.86-4.04-1.83-5.97-2.88h2.34V312.86h-2.34c1.94-1.05,3.93-2.01,5.97-2.88c8.17-3.46,17.16-5.37,26.59-5.37
				s18.42,1.91,26.59,5.37c2.04,0.86,4.04,1.83,5.97,2.88h-2.34V372.93z"/>
			<path style="clip-path:url(#SVGID_00000118388498265948967440000003729573698852726690_);fill:#9BD0FB;" d="M103.72,372.93v47.46
				v11.56h1.77c-1.9,1.03-3.86,1.98-5.87,2.83c-8.03,3.4-16.86,5.27-26.13,5.27s-18.1-1.88-26.13-5.27
				c-2.01-0.85-3.97-1.79-5.87-2.83h1.77V313.91h-1.77c1.9-1.03,3.86-1.98,5.87-2.83c8.03-3.4,16.86-5.27,26.13-5.27
				s18.1,1.88,26.13,5.27c2.01,0.85,3.97,1.79,5.87,2.83h-1.77V372.93z"/>
			<path style="clip-path:url(#SVGID_00000118388498265948967440000003729573698852726690_);fill:#9CD0FB;" d="M103.72,372.93v46.61
				v8.05h6.64c-3.51,2.37-7.25,4.41-11.2,6.08c-7.89,3.34-16.56,5.18-25.66,5.18s-17.77-1.84-25.66-5.18
				c-3.94-1.67-7.69-3.71-11.2-6.08h6.64V318.27h-6.64c3.51-2.37,7.25-4.41,11.2-6.08c7.89-3.34,16.56-5.18,25.66-5.18
				s17.77,1.84,25.66,5.18c3.94,1.67,7.69,3.71,11.2,6.08h-6.64V372.93z"/>
			<path style="clip-path:url(#SVGID_00000118388498265948967440000003729573698852726690_);fill:#9DD1FB;" d="M103.72,372.93v45.77
				v7.9h5.97c-3.44,2.33-7.12,4.33-10.99,5.97c-7.74,3.28-16.26,5.09-25.19,5.09s-17.45-1.81-25.19-5.09
				c-3.87-1.64-7.55-3.64-10.99-5.97h5.97V319.26h-5.97c3.44-2.33,7.12-4.33,10.99-5.97c7.74-3.28,16.26-5.09,25.19-5.09
				s17.45,1.81,25.19,5.09c3.87,1.64,7.55,3.64,10.99,5.97h-5.97V372.93z"/>
			<path style="clip-path:url(#SVGID_00000118388498265948967440000003729573698852726690_);fill:#9ED1FB;" d="M103.72,372.93v44.92
				v7.76h5.3c-3.38,2.28-6.99,4.25-10.79,5.86c-7.6,3.21-15.96,4.99-24.73,4.99s-17.13-1.78-24.73-4.99
				c-3.8-1.61-7.41-3.57-10.79-5.86h5.3V320.26h-5.3c3.38-2.28,6.99-4.25,10.79-5.86c7.6-3.21,15.96-4.99,24.73-4.99
				s17.13,1.78,24.73,4.99c3.8,1.61,7.41,3.57,10.79,5.86h-5.3V372.93z"/>
			<path style="clip-path:url(#SVGID_00000118388498265948967440000003729573698852726690_);fill:#9FD2FB;" d="M103.72,372.93v44.07
				v7.61h4.63c-3.32,2.24-6.86,4.17-10.59,5.75c-7.46,3.15-15.66,4.9-24.26,4.9s-16.8-1.74-24.26-4.9
				c-3.73-1.58-7.27-3.51-10.59-5.75h4.63V321.25h-4.63c3.32-2.24,6.86-4.17,10.59-5.75c7.46-3.15,15.66-4.9,24.26-4.9
				s16.8,1.74,24.26,4.9c3.73,1.58,7.27,3.51,10.59,5.75h-4.63V372.93z"/>
			<path style="clip-path:url(#SVGID_00000118388498265948967440000003729573698852726690_);fill:#A0D2FB;" d="M103.72,372.93v43.23
				v7.46h3.96c-3.25,2.2-6.73,4.09-10.38,5.64c-7.31,3.09-15.35,4.8-23.8,4.8s-16.48-1.71-23.8-4.8c-3.66-1.55-7.13-3.44-10.38-5.64
				h3.96V322.24h-3.96c3.25-2.2,6.73-4.09,10.38-5.64c7.31-3.09,15.35-4.8,23.8-4.8s16.48,1.71,23.8,4.8
				c3.66,1.55,7.13,3.44,10.38,5.64h-3.96V372.93z"/>
			<path style="clip-path:url(#SVGID_00000118388498265948967440000003729573698852726690_);fill:#A1D3FB;" d="M103.72,372.93v42.38
				v7.32h3.29c-3.19,2.15-6.6,4.01-10.18,5.53c-7.17,3.03-15.05,4.71-23.33,4.71s-16.16-1.68-23.33-4.71
				c-3.59-1.52-6.99-3.37-10.18-5.53h3.29v-99.4h-3.29c3.19-2.15,6.6-4.01,10.18-5.53c7.17-3.03,15.05-4.71,23.33-4.71
				s16.16,1.68,23.33,4.71c3.59,1.52,6.99,3.37,10.18,5.53h-3.29V372.93z"/>
			<path style="clip-path:url(#SVGID_00000118388498265948967440000003729573698852726690_);fill:#A2D3FB;" d="M103.72,372.93v41.53
				v7.17h2.62c-3.12,2.11-6.46,3.93-9.98,5.42c-7.03,2.97-14.75,4.62-22.86,4.62s-15.84-1.64-22.86-4.62
				c-3.51-1.49-6.85-3.3-9.98-5.42h2.62v-97.41h-2.62c3.12-2.11,6.46-3.93,9.98-5.42c7.03-2.97,14.75-4.62,22.86-4.62
				s15.84,1.64,22.86,4.62c3.51,1.49,6.85,3.3,9.98,5.42h-2.62V372.93z"/>
			<path style="clip-path:url(#SVGID_00000118388498265948967440000003729573698852726690_);fill:#A3D4FC;" d="M103.72,372.93v40.69
				v7.03h1.95c-3.06,2.07-6.33,3.85-9.77,5.31c-6.88,2.91-14.45,4.52-22.4,4.52s-15.51-1.61-22.4-4.52
				c-3.44-1.46-6.71-3.24-9.77-5.31h1.95v-95.42h-1.95c3.06-2.07,6.33-3.85,9.77-5.31c6.88-2.91,14.45-4.52,22.4-4.52
				s15.51,1.61,22.4,4.52c3.44,1.46,6.71,3.24,9.77,5.31h-1.95V372.93z"/>
			<path style="clip-path:url(#SVGID_00000118388498265948967440000003729573698852726690_);fill:#A4D4FC;" d="M103.72,372.93v39.84
				v6.88H105c-3,2.02-6.2,3.77-9.57,5.19c-6.74,2.85-14.15,4.43-21.93,4.43s-15.19-1.58-21.93-4.43c-3.37-1.43-6.57-3.17-9.57-5.19
				h1.28v-93.44H42c3-2.02,6.2-3.77,9.57-5.19c6.74-2.85,14.15-4.43,21.93-4.43s15.19,1.58,21.93,4.43
				c3.37,1.43,6.57,3.17,9.57,5.19h-1.28V372.93z"/>
			<path style="clip-path:url(#SVGID_00000118388498265948967440000003729573698852726690_);fill:#A5D5FC;" d="M103.72,372.93v38.99
				v6.73h0.61c-2.93,1.98-6.07,3.69-9.37,5.08c-6.6,2.79-13.85,4.33-21.46,4.33s-14.87-1.54-21.46-4.33c-3.3-1.4-6.43-3.1-9.37-5.08
				h0.61v-91.45h-0.61c2.93-1.98,6.07-3.69,9.37-5.08c6.6-2.79,13.85-4.33,21.46-4.33s14.87,1.54,21.46,4.33
				c3.3,1.4,6.43,3.1,9.37,5.08h-0.61V372.93z"/>
			<path style="clip-path:url(#SVGID_00000118388498265948967440000003729573698852726690_);fill:#A6D5FC;" d="M103.72,372.93v38.15
				v3.48h4.09c-1.33,1.1-2.72,2.14-4.15,3.11c-2.87,1.94-5.94,3.61-9.16,4.97c-6.45,2.73-13.55,4.24-21,4.24s-14.54-1.51-21-4.24
				c-3.23-1.36-6.29-3.03-9.16-4.97c-1.43-0.97-2.82-2.01-4.15-3.11h4.09v-83.25h-4.09c1.33-1.1,2.72-2.14,4.15-3.11
				c2.87-1.94,5.94-3.61,9.16-4.97c6.45-2.73,13.55-4.24,21-4.24s14.54,1.51,21,4.24c3.23,1.36,6.29,3.03,9.16,4.97
				c1.43,0.97,2.82,2.01,4.15,3.11h-4.09V372.93z"/>
			<path style="clip-path:url(#SVGID_00000118388498265948967440000003729573698852726690_);fill:#A7D6FC;" d="M103.72,372.93v37.3
				v3.4h3.33c-1.3,1.07-2.66,2.09-4.06,3.04c-2.81,1.9-5.8,3.53-8.96,4.86c-6.31,2.67-13.25,4.15-20.53,4.15s-14.22-1.48-20.53-4.15
				c-3.16-1.33-6.15-2.97-8.96-4.86c-1.4-0.95-2.76-1.96-4.06-3.04h3.33v-81.41h-3.33c1.3-1.07,2.66-2.09,4.06-3.04
				c2.81-1.9,5.8-3.53,8.96-4.86c6.31-2.67,13.25-4.15,20.53-4.15s14.22,1.48,20.53,4.15c3.16,1.33,6.15,2.97,8.96,4.86
				c1.4,0.95,2.76,1.96,4.06,3.04h-3.33V372.93z"/>
			<path style="clip-path:url(#SVGID_00000118388498265948967440000003729573698852726690_);fill:#A8D6FC;" d="M103.72,372.93v36.45
				h6.23c-9.33,9.33-22.22,15.1-36.45,15.1s-27.12-5.77-36.45-15.1h6.23v-72.9h-6.23c9.33-9.33,22.22-15.1,36.45-15.1
				s27.12,5.77,36.45,15.1h-6.23V372.93z"/>
			<path style="clip-path:url(#SVGID_00000118388498265948967440000003729573698852726690_);fill:#A9D6FC;" d="M103.72,372.93v35.6
				h5.38c-9.11,9.11-21.7,14.75-35.6,14.75s-26.49-5.64-35.6-14.75h5.38v-71.21H37.9c9.11-9.11,21.7-14.75,35.6-14.75
				s26.49,5.64,35.6,14.75h-5.38V372.93z"/>
			<path style="clip-path:url(#SVGID_00000118388498265948967440000003729573698852726690_);fill:#AAD7FC;" d="M103.72,372.93v34.76
				h4.54c-8.9,8.9-21.18,14.4-34.76,14.4s-25.86-5.5-34.76-14.4h4.54v-69.52h-4.54c8.9-8.9,21.18-14.4,34.76-14.4
				s25.86,5.5,34.76,14.4h-4.54V372.93z"/>
			<path style="clip-path:url(#SVGID_00000118388498265948967440000003729573698852726690_);fill:#ABD7FC;" d="M103.72,372.93v33.91
				h3.69c-8.68,8.68-20.67,14.05-33.91,14.05s-25.23-5.37-33.91-14.05h3.69v-67.82h-3.69c8.68-8.68,20.67-14.05,33.91-14.05
				s25.23,5.37,33.91,14.05h-3.69V372.93z"/>
			<path style="clip-path:url(#SVGID_00000118388498265948967440000003729573698852726690_);fill:#ACD8FC;" d="M103.72,372.93V406
				h2.84c-8.46,8.46-20.15,13.7-33.06,13.7s-24.6-5.23-33.06-13.7h2.84v-66.13h-2.84c8.46-8.46,20.15-13.7,33.06-13.7
				s24.6,5.23,33.06,13.7h-2.84V372.93z"/>
			<path style="clip-path:url(#SVGID_00000118388498265948967440000003729573698852726690_);fill:#ADD8FC;" d="M103.72,372.93v32.22
				h2c-8.25,8.25-19.64,13.34-32.22,13.34s-23.97-5.1-32.22-13.34h2v-64.43h-2c8.25-8.25,19.64-13.34,32.22-13.34
				s23.97,5.1,32.22,13.34h-2V372.93z"/>
			<path style="clip-path:url(#SVGID_00000118388498265948967440000003729573698852726690_);fill:#AED9FC;" d="M103.72,372.93v31.37
				h1.15c-8.03,8.03-19.12,12.99-31.37,12.99s-23.34-4.97-31.37-12.99h1.15v-62.74h-1.15c8.03-8.03,19.12-12.99,31.37-12.99
				s23.34,4.97,31.37,12.99h-1.15V372.93z"/>
			<path style="clip-path:url(#SVGID_00000118388498265948967440000003729573698852726690_);fill:#AFD9FC;" d="M103.72,372.93v30.52
				h0.3c-7.81,7.81-18.6,12.64-30.52,12.64s-22.71-4.83-30.52-12.64h0.3v-61.05h-0.3c7.81-7.81,18.6-12.64,30.52-12.64
				s22.71,4.83,30.52,12.64h-0.3V372.93z"/>
			<path style="clip-path:url(#SVGID_00000118388498265948967440000003729573698852726690_);fill:#B0DAFC;" d="M103.72,372.93v16.34
				v7.13h4.58c-1.51,2.23-3.23,4.31-5.12,6.21c-7.59,7.59-18.09,12.29-29.68,12.29s-22.08-4.7-29.68-12.29
				c-1.9-1.9-3.62-3.98-5.12-6.21h4.58v-46.93H38.7c1.51-2.23,3.23-4.31,5.12-6.21c7.59-7.59,18.09-12.29,29.68-12.29
				s22.08,4.7,29.68,12.29c1.9,1.9,3.62,3.98,5.12,6.21h-4.58V372.93z"/>
			<path style="clip-path:url(#SVGID_00000118388498265948967440000003729573698852726690_);fill:#B1DAFC;" d="M103.72,372.93v15.87
				v6.93h3.59c-1.47,2.17-3.13,4.19-4.98,6.03c-7.38,7.38-17.57,11.94-28.83,11.94s-21.45-4.56-28.83-11.94
				c-1.84-1.84-3.51-3.86-4.98-6.03h3.59v-45.59h-3.59c1.47-2.17,3.13-4.19,4.98-6.03c7.38-7.38,17.57-11.94,28.83-11.94
				s21.45,4.56,28.83,11.94c1.84,1.84,3.51,3.86,4.98,6.03h-3.59V372.93z"/>
			<path style="clip-path:url(#SVGID_00000118388498265948967440000003729573698852726690_);fill:#B2DBFC;" d="M103.72,372.93v15.4
				h6.24c-2,4.73-4.9,9-8.48,12.58c-7.16,7.16-17.05,11.59-27.98,11.59s-20.82-4.43-27.98-11.59c-3.58-3.58-6.48-7.84-8.48-12.58
				h6.24v-30.81h-6.24c2-4.73,4.9-9,8.48-12.58c7.16-7.16,17.05-11.59,27.98-11.59s20.82,4.43,27.98,11.59
				c3.58,3.58,6.48,7.84,8.48,12.58h-6.24V372.93z"/>
			<path style="clip-path:url(#SVGID_00000118388498265948967440000003729573698852726690_);fill:#B4DBFC;" d="M103.72,372.93v14.94
				h5.14c-1.94,4.59-4.75,8.73-8.22,12.2c-6.94,6.94-16.54,11.24-27.14,11.24s-20.19-4.3-27.14-11.24
				c-3.47-3.47-6.28-7.61-8.22-12.2h5.14V358h-5.14c1.94-4.59,4.75-8.73,8.22-12.2c6.94-6.94,16.54-11.24,27.14-11.24
				s20.19,4.3,27.14,11.24c3.47,3.47,6.28,7.61,8.22,12.2h-5.14V372.93z"/>
			<path style="clip-path:url(#SVGID_00000118388498265948967440000003729573698852726690_);fill:#B5DCFC;" d="M103.72,372.93v14.47
				h4.04c-1.88,4.45-4.6,8.45-7.97,11.82c-6.73,6.73-16.02,10.89-26.29,10.89s-19.56-4.16-26.29-10.89
				c-3.36-3.36-6.09-7.37-7.97-11.82h4.04v-28.94h-4.04c1.88-4.45,4.6-8.45,7.97-11.82c6.73-6.73,16.02-10.89,26.29-10.89
				s19.56,4.16,26.29,10.89c3.36,3.36,6.09,7.37,7.97,11.82h-4.04V372.93z"/>
			
				<circle style="clip-path:url(#SVGID_00000118388498265948967440000003729573698852726690_);fill:#B6DCFC;" cx="73.5" cy="372.93" r="35.98"/>
			
				<circle style="clip-path:url(#SVGID_00000118388498265948967440000003729573698852726690_);fill:#B7DDFC;" cx="73.5" cy="372.93" r="34.78"/>
			
				<circle style="clip-path:url(#SVGID_00000118388498265948967440000003729573698852726690_);fill:#B8DDFC;" cx="73.5" cy="372.93" r="33.59"/>
			
				<circle style="clip-path:url(#SVGID_00000118388498265948967440000003729573698852726690_);fill:#B9DEFC;" cx="73.5" cy="372.93" r="32.39"/>
			
				<circle style="clip-path:url(#SVGID_00000118388498265948967440000003729573698852726690_);fill:#BADEFC;" cx="73.5" cy="372.93" r="31.19"/>
			
				<circle style="clip-path:url(#SVGID_00000118388498265948967440000003729573698852726690_);fill:#BBDFFC;" cx="73.5" cy="372.93" r="29.99"/>
			
				<circle style="clip-path:url(#SVGID_00000118388498265948967440000003729573698852726690_);fill:#BCDFFC;" cx="73.5" cy="372.93" r="28.79"/>
			
				<circle style="clip-path:url(#SVGID_00000118388498265948967440000003729573698852726690_);fill:#BDE0FC;" cx="73.5" cy="372.93" r="27.6"/>
			
				<circle style="clip-path:url(#SVGID_00000118388498265948967440000003729573698852726690_);fill:#BEE0FC;" cx="73.5" cy="372.93" r="26.4"/>
			
				<circle style="clip-path:url(#SVGID_00000118388498265948967440000003729573698852726690_);fill:#BFE0FC;" cx="73.5" cy="372.93" r="25.2"/>
			
				<circle style="clip-path:url(#SVGID_00000118388498265948967440000003729573698852726690_);fill:#C0E1FC;" cx="73.5" cy="372.93" r="24"/>
			
				<circle style="clip-path:url(#SVGID_00000118388498265948967440000003729573698852726690_);fill:#C1E1FC;" cx="73.5" cy="372.93" r="22.81"/>
			
				<circle style="clip-path:url(#SVGID_00000118388498265948967440000003729573698852726690_);fill:#C2E2FC;" cx="73.5" cy="372.93" r="21.61"/>
			
				<circle style="clip-path:url(#SVGID_00000118388498265948967440000003729573698852726690_);fill:#C3E2FC;" cx="73.5" cy="372.93" r="20.41"/>
			
				<circle style="clip-path:url(#SVGID_00000118388498265948967440000003729573698852726690_);fill:#C4E3FD;" cx="73.5" cy="372.93" r="19.21"/>
			
				<circle style="clip-path:url(#SVGID_00000118388498265948967440000003729573698852726690_);fill:#C5E3FD;" cx="73.5" cy="372.93" r="18.02"/>
			
				<circle style="clip-path:url(#SVGID_00000118388498265948967440000003729573698852726690_);fill:#C6E4FD;" cx="73.5" cy="372.93" r="16.82"/>
			
				<circle style="clip-path:url(#SVGID_00000118388498265948967440000003729573698852726690_);fill:#C7E4FD;" cx="73.5" cy="372.93" r="15.62"/>
			
				<circle style="clip-path:url(#SVGID_00000118388498265948967440000003729573698852726690_);fill:#C8E5FD;" cx="73.5" cy="372.93" r="14.42"/>
			
				<circle style="clip-path:url(#SVGID_00000118388498265948967440000003729573698852726690_);fill:#C9E5FD;" cx="73.5" cy="372.93" r="13.22"/>
			
				<circle style="clip-path:url(#SVGID_00000118388498265948967440000003729573698852726690_);fill:#CAE6FD;" cx="73.5" cy="372.93" r="12.03"/>
			
				<circle style="clip-path:url(#SVGID_00000118388498265948967440000003729573698852726690_);fill:#CBE6FD;" cx="73.5" cy="372.93" r="10.83"/>
			
				<circle style="clip-path:url(#SVGID_00000118388498265948967440000003729573698852726690_);fill:#CCE7FD;" cx="73.5" cy="372.93" r="9.63"/>
			
				<circle style="clip-path:url(#SVGID_00000118388498265948967440000003729573698852726690_);fill:#CDE7FD;" cx="73.5" cy="372.93" r="8.43"/>
			
				<circle style="clip-path:url(#SVGID_00000118388498265948967440000003729573698852726690_);fill:#CEE8FD;" cx="73.5" cy="372.93" r="7.24"/>
			
				<circle style="clip-path:url(#SVGID_00000118388498265948967440000003729573698852726690_);fill:#CFE8FD;" cx="73.5" cy="372.93" r="6.04"/>
			
				<circle style="clip-path:url(#SVGID_00000118388498265948967440000003729573698852726690_);fill:#D0E9FD;" cx="73.5" cy="372.93" r="4.84"/>
			
				<circle style="clip-path:url(#SVGID_00000118388498265948967440000003729573698852726690_);fill:#D1E9FD;" cx="73.5" cy="372.93" r="3.64"/>
			
				<circle style="clip-path:url(#SVGID_00000118388498265948967440000003729573698852726690_);fill:#D2EAFD;" cx="73.5" cy="372.93" r="2.45"/>
			
				<circle style="clip-path:url(#SVGID_00000118388498265948967440000003729573698852726690_);fill:#D3EAFD;" cx="73.5" cy="372.93" r="1.25"/>
		</g>
	</g>
	<g>
		<path class="st0" d="M9.9,546.66v-56.24c0-2.12,1.72-3.84,3.84-3.84h119.53c2.12,0,3.84,1.72,3.84,3.84v56.24
			c0,2.12-1.72,3.84-3.84,3.84H13.74C11.62,550.5,9.9,548.78,9.9,546.66z"/>
	</g>
	<g>
		<g>
			<path class="st5" d="M24.18,532.53v-27.97c0-3.62,2.93-6.55,6.55-6.55h12.14c3.62,0,6.55,2.93,6.55,6.55v27.97
				c0,3.62-2.93,6.55-6.55,6.55H30.73C27.11,539.07,24.18,536.14,24.18,532.53z"/>
		</g>
	</g>
	<g>
		<g>
			<path class="st1" d="M17.61,197.44h111.79c3.19,0,6.07,1.29,8.17,3.39l4.09-4.09c-3.14-3.14-7.47-5.08-12.26-5.08H17.61
				c-4.79,0-9.13,1.94-12.27,5.08l4.09,4.09C11.52,198.74,14.42,197.44,17.61,197.44z"/>
		</g>
		<g>
			<path class="st70" d="M146.74,542.79V209c0-4.79-1.94-9.13-5.09-12.27l-4.09,4.09c2.1,2.09,3.4,4.99,3.4,8.18v333.78
				c0,3.2-1.3,6.09-3.41,8.19l4.09,4.09C144.79,551.93,146.74,547.59,146.74,542.79z"/>
		</g>
		<g>
			<path class="st71" d="M6.04,542.79V209c0-3.19,1.3-6.08,3.39-8.17l-4.09-4.09c-3.14,3.14-5.08,7.47-5.08,12.26v333.78
				c0,4.79,1.94,9.13,5.09,12.27l4.09-4.09C7.34,548.87,6.04,545.98,6.04,542.79z"/>
		</g>
		<g>
			<path class="st1" d="M129.39,554.35H17.61c-3.19,0-6.07-1.3-8.17-3.39l-4.09,4.09c3.14,3.14,7.47,5.08,12.26,5.08h111.79
				c4.78,0,9.11-1.94,12.25-5.07l-4.09-4.09C135.46,553.06,132.58,554.35,129.39,554.35z"/>
		</g>
	</g>
	<g>
		<g>
			<path class="st5" d="M18.59,219.37c0.12-5.95,4.9-10.61,10.85-10.61s10.85,4.9,10.85,10.85c0,5.95-4.9,10.73-10.85,10.73
				s-10.85-4.78-10.96-10.73h-2.8c0,7.58,6.18,13.76,13.76,13.76s13.88-6.18,13.88-13.76c0-7.58-6.3-13.65-13.88-13.65
				s-13.65,6.07-13.76,13.65h2.92L18.59,219.37L18.59,219.37z"/>
		</g>
		<g>
			<path class="st72" d="M73.88,221.94c0.35,0,0.93,0.12,1.17,0.23c0.23,0.12,0.35,0.23,0.47,0.35c0.12,0.12,0.23,0.35,0.35,0.47
				c0.12,0.12,0.23,0.82,0.23,0.82v5.37h5.13v-7.35c0,0,0-0.47-0.12-1.05c-0.12-0.35-0.23-0.7-0.47-0.93
				c-0.12-0.23-0.35-0.47-0.47-0.58c-0.35-0.35-0.58-0.58-1.05-0.7c-0.58-0.23-1.63-0.47-2.33-0.47c-3.85-0.23-5.83,1.28-5.83,1.28
				v-1.17h-5.25v11.08h5.25v-5.02c0,0,0.12-0.35,0.12-0.47C71.08,223.46,72.13,221.82,73.88,221.94L73.88,221.94L73.88,221.94z"/>
		</g>
		<g>
			<polygon class="st5" points="98.72,229.05 93.59,229.05 93.59,214.12 98.72,214.12 			"/>
		</g>
		<g>
			<path class="st5" d="M118.09,217.97h5.02v0.93c0,0,2.1-1.75,5.37-1.05c3.5,0.82,2.8,5.6,2.8,5.6h-5.25c0,0,0-0.35,0-0.7
				c-0.12-0.58-0.35-1.4-1.63-1.28c-1.28,0.23-1.28,1.4-1.28,1.4v6.18h-4.9L118.09,217.97L118.09,217.97L118.09,217.97z"/>
		</g>
		<g>
			<path class="st5" d="M93.59,222.99l0.47-4.2c-0.47-0.47-1.17-0.82-2.1-1.05c-0.93-0.35-2.33-0.23-3.15-0.23
				c-3.27,0-6.07,2.68-6.07,5.95c0,3.15,2.68,5.83,5.83,5.83c0.82,0,2.22,0,3.03-0.12c1.87-0.47,2.8-1.28,3.38-2.57l-1.52-3.03
				c-0.12,1.17-1.28,2.1-2.8,2.1c-1.52,0-2.8-1.05-2.8-2.22c0-1.28,1.28-2.22,2.8-2.22C92.19,220.89,93.36,221.82,93.59,222.99
				L93.59,222.99L93.59,222.99z"/>
		</g>
		<g>
			<path class="st5" d="M101.99,219.14c1.05-1.17,3.5-1.87,6.42-1.87c2.68,0,4.9,0.58,6.07,1.63c1.4,1.05,2.33,2.68,2.33,4.55
				c0,0.47,0,0.47-0.12,0.93c0,0-6.18,0-9.1,0v-2.45c1.4,0,3.85,0,3.73,0c0-0.7-0.93-1.98-2.68-1.98c-1.52-0.23-2.92,1.17-2.92,1.98
				h2.33v2.45c-0.58,0-2.33,0-2.33,0c0.12,1.28,1.87,2.1,3.15,2.1c0.82,0,1.75-0.23,2.45-0.93h5.13c-0.23,0.58-0.23,0.93-0.7,1.4
				c-1.05,1.63-4.08,2.57-7.23,2.57c-2.22,0-4.2-0.47-5.48-1.28c0,0-2.68-1.75-2.68-4.9C100.12,221.71,100.82,220.19,101.99,219.14
				L101.99,219.14L101.99,219.14L101.99,219.14z"/>
		</g>
		<g>
			<path class="st5" d="M55.92,216.69v-2.57c0,0-2.92,0-4.32,0s-2.57,1.17-2.57,2.57v1.17h-1.52v3.15h1.52v7.93h5.25v-7.93h1.75
				v-3.15h-1.87c0-0.7,0.23-1.17,0.93-1.17C55.45,216.69,55.92,216.69,55.92,216.69L55.92,216.69z"/>
		</g>
		<g>
			<polygon class="st5" points="57.9,229.05 57.9,217.86 63.15,217.86 63.15,229.05 			"/>
		</g>
		<g>
			<polygon class="st5" points="57.9,216.69 57.9,214.12 63.15,214.12 63.15,216.69 			"/>
		</g>
		<g>
			<path class="st5" d="M30.37,207.94v17.5l-4.08-4.43c0.47,0.12,0.82,0,1.17-0.35s0.35-0.58,0.35-1.05v-11.2l-2.68,0.82v9.1h-8.28
				v2.8h5.25l6.76,6.53c1.05,1.17,1.87,1.87,3.03,1.28c0.7-0.35,1.05-0.82,1.17-1.63v-9.45h3.15c0.7,0,1.17-0.58,1.28-1.28
				c0.12-0.82-0.47-1.4-1.28-1.52h-3.15v-6.07L30.37,207.94L30.37,207.94L30.37,207.94z"/>
		</g>
	</g>
	<g>
		<g>
			<path class="st71" d="M47.13,471.6V274.26c0-0.8,0.32-1.52,0.85-2.04l-4.09-4.09c-1.57,1.57-2.54,3.74-2.54,6.13V471.6
				c0,2.39,0.97,4.56,2.54,6.13l4.09-4.09C47.45,473.12,47.13,472.4,47.13,471.6z"/>
		</g>
		<g>
			<path class="st1" d="M50.02,271.37h46.96c0.8,0,1.52,0.32,2.04,0.85l4.09-4.09c-1.57-1.57-3.74-2.54-6.13-2.54H50.02
				c-2.39,0-4.56,0.97-6.13,2.54l4.09,4.09C48.5,271.7,49.22,271.37,50.02,271.37z"/>
		</g>
		<g>
			<path class="st0" d="M103.11,268.13l-4.09,4.09c0.52,0.52,0.85,1.25,0.85,2.04V471.6c0,0.8-0.32,1.52-0.85,2.04l4.09,4.09
				c1.57-1.57,2.54-3.74,2.54-6.13V274.26C105.65,271.87,104.68,269.7,103.11,268.13z"/>
		</g>
		<g>
			<path class="st1" d="M96.98,474.49H50.02c-0.8,0-1.52-0.32-2.04-0.85l-4.09,4.09c1.57,1.57,3.74,2.54,6.13,2.54h46.96
				c2.39,0,4.56-0.97,6.13-2.54l-4.09-4.09C98.5,474.17,97.78,474.49,96.98,474.49z"/>
		</g>
	</g>
	<g>
		<path class="st2" d="M59.93,537.07v-37.06c0-1.1,0.9-2,2-2h61.6c1.1,0,2,0.9,2,2v37.06c0,1.1-0.9,2-2,2h-61.6
			C60.83,539.07,59.93,538.18,59.93,537.07z"/>
	</g>
	<g>
		<path class="st1" d="M66.2,535.22v-33.36c0-2.13,1.73-3.85,3.85-3.85h-6.27c-2.13,0-3.85,1.73-3.85,3.85v33.36
			c0,2.13,1.73,3.85,3.85,3.85h6.27C67.92,539.07,66.2,537.35,66.2,535.22z"/>
	</g>
	<g>
		<g>
			<path class="st5" d="M19.42,244.2h-5.06v-1.45h7.65l-6.48,10.64l-1.23-0.77L19.42,244.2z"/>
		</g>
		<g>
			<path class="st5" d="M23.22,253.03l2.16-11.06l3.58,7.99l3.61-7.99l1.94,11.06h-1.6l-1.05-6.2l-2.99,6.68l-2.96-6.69l-1.08,6.21
				H23.22z"/>
		</g>
		<g>
			<path class="st5" d="M37.28,251.37c0.51,0,0.93,0.42,0.93,0.93c0,0.51-0.42,0.93-0.93,0.93s-0.93-0.42-0.93-0.93
				C36.35,251.78,36.77,251.37,37.28,251.37z"/>
		</g>
		<g>
			<path class="st5" d="M46.56,253.03h-6.91l3.56-4.32c0.36-0.43,0.89-1.11,1.23-1.6c0.29-0.43,0.54-0.88,0.54-1.48
				c0-0.86-0.57-1.67-1.71-1.67c-1.16,0-1.76,0.89-1.82,1.87h-1.51c0.05-1,0.46-1.8,0.86-2.25c0.37-0.42,1.11-1,2.41-1
				c2.19,0,3.31,1.5,3.31,3.1c0,0.85-0.32,1.54-0.74,2.16c-0.37,0.55-0.85,1.13-1.46,1.85l-1.6,1.9h3.84V253.03z"/>
		</g>
		<g>
			<path class="st5" d="M53.73,249.64h1.11v1.45h-1.11v1.94h-1.51v-1.94h-5.09l6.6-9.1V249.64z M52.22,249.67v-3.31l-2.34,3.31
				H52.22z"/>
		</g>
		<g>
			<path class="st5" d="M57.43,251.37c0.51,0,0.93,0.42,0.93,0.93c0,0.51-0.42,0.93-0.93,0.93s-0.93-0.42-0.93-0.93
				C56.51,251.78,56.92,251.37,57.43,251.37z"/>
		</g>
		<g>
			<path class="st5" d="M66.44,248.51c0.39,0.51,0.46,1.08,0.46,1.54c0,1.05-0.4,1.76-0.82,2.19c-0.48,0.51-1.25,0.96-2.42,0.96
				c-1.17,0-1.94-0.45-2.42-0.96c-0.42-0.43-0.82-1.14-0.82-2.19c0-0.46,0.08-1.03,0.46-1.54c0.23-0.32,0.6-0.63,1.08-0.83
				c-0.43-0.19-0.72-0.49-0.91-0.77c-0.26-0.42-0.37-0.94-0.37-1.4c0-0.82,0.29-1.59,0.86-2.14c0.32-0.31,0.99-0.79,2.11-0.79
				c1.13,0,1.79,0.48,2.11,0.79c0.57,0.55,0.86,1.33,0.86,2.14c0,0.46-0.11,0.99-0.37,1.4c-0.18,0.28-0.48,0.59-0.91,0.77
				C65.84,247.88,66.21,248.19,66.44,248.51z M62.44,248.84c-0.31,0.31-0.48,0.8-0.48,1.25c0,0.4,0.15,0.86,0.46,1.2
				c0.22,0.25,0.6,0.52,1.23,0.52c0.63,0,1.02-0.28,1.23-0.52c0.31-0.34,0.46-0.8,0.46-1.2c0-0.45-0.17-0.94-0.48-1.25
				c-0.31-0.31-0.77-0.48-1.22-0.48S62.75,248.53,62.44,248.84z M62.54,244.38c-0.26,0.26-0.43,0.68-0.43,1.14
				c0,0.48,0.18,0.85,0.42,1.08c0.28,0.29,0.74,0.46,1.14,0.46c0.4,0,0.86-0.17,1.14-0.46c0.23-0.23,0.42-0.6,0.42-1.08
				c0-0.46-0.17-0.88-0.43-1.14c-0.26-0.25-0.65-0.42-1.13-0.42C63.18,243.96,62.8,244.13,62.54,244.38z"/>
		</g>
		<g>
			<path class="st5" d="M69.89,251.37c0.51,0,0.93,0.42,0.93,0.93c0,0.51-0.42,0.93-0.93,0.93s-0.93-0.42-0.93-0.93
				C68.97,251.78,69.38,251.37,69.89,251.37z"/>
		</g>
		<g>
			<path class="st5" d="M79.17,253.03h-6.91l3.56-4.32c0.36-0.43,0.89-1.11,1.23-1.6c0.29-0.43,0.54-0.88,0.54-1.48
				c0-0.86-0.57-1.67-1.71-1.67c-1.16,0-1.76,0.89-1.82,1.87h-1.51c0.05-1,0.46-1.8,0.86-2.25c0.37-0.42,1.11-1,2.41-1
				c2.19,0,3.31,1.5,3.31,3.1c0,0.85-0.32,1.54-0.74,2.16c-0.37,0.55-0.85,1.13-1.46,1.85l-1.6,1.9h3.84V253.03z"/>
		</g>
		<g>
			<path class="st5" d="M81.55,245.37c0.05-0.83,0.4-1.54,0.88-2c0.71-0.68,1.57-0.79,2.25-0.79c0.79,0,1.56,0.15,2.22,0.85
				c0.54,0.56,0.74,1.22,0.74,1.96c0,0.49-0.09,0.93-0.36,1.36c-0.28,0.45-0.63,0.71-0.93,0.86c0.52,0.2,0.85,0.56,1.02,0.82
				c0.29,0.43,0.43,1,0.43,1.59c0,1.02-0.39,1.8-0.88,2.3c-0.74,0.74-1.71,0.89-2.51,0.89c-0.79,0-1.63-0.15-2.3-0.86
				c-0.46-0.49-0.8-1.31-0.88-2.1h1.51c0.08,0.46,0.29,0.86,0.55,1.11c0.22,0.2,0.6,0.46,1.25,0.46c0.48,0,0.93-0.18,1.2-0.43
				c0.29-0.28,0.54-0.76,0.54-1.45c0-0.34-0.06-0.83-0.46-1.22c-0.45-0.43-1-0.46-1.33-0.46H84.2v-1.33h0.22
				c0.66,0,1.08-0.22,1.31-0.45c0.25-0.25,0.4-0.63,0.4-1.09c0-0.54-0.23-0.86-0.4-1.03c-0.36-0.34-0.79-0.39-1.1-0.39
				c-0.37,0-0.8,0.06-1.14,0.42c-0.36,0.37-0.43,0.93-0.43,0.99H81.55z"/>
		</g>
		<g>
			<path class="st5" d="M91.31,252.09c-1.08-1.23-1.31-2.85-1.31-4.19c0-1.33,0.23-2.98,1.31-4.21c0.65-0.74,1.42-1.11,2.33-1.11
				c0.91,0,1.68,0.37,2.33,1.11c1.08,1.23,1.31,2.88,1.31,4.21c0,1.34-0.23,2.96-1.31,4.19c-0.65,0.74-1.4,1.11-2.33,1.11
				C92.71,253.2,91.96,252.83,91.31,252.09z M92.25,244.81c-0.57,0.85-0.71,2.17-0.71,3.07c0,0.91,0.14,2.22,0.71,3.08
				c0.45,0.68,0.99,0.85,1.39,0.85c0.4,0,0.94-0.17,1.39-0.85c0.57-0.86,0.71-2.17,0.71-3.08c0-0.89-0.14-2.22-0.71-3.07
				c-0.45-0.68-0.99-0.85-1.39-0.85C93.24,243.96,92.7,244.13,92.25,244.81z"/>
		</g>
		<g>
			<path class="st5" d="M99.87,251.37c0.51,0,0.93,0.42,0.93,0.93c0,0.51-0.42,0.93-0.93,0.93s-0.93-0.42-0.93-0.93
				C98.94,251.78,99.36,251.37,99.87,251.37z"/>
		</g>
		<g>
			<path class="st5" d="M103.77,252.09c-1.08-1.23-1.31-2.85-1.31-4.19c0-1.33,0.23-2.98,1.31-4.21c0.65-0.74,1.42-1.11,2.33-1.11
				c0.91,0,1.68,0.37,2.33,1.11c1.08,1.23,1.31,2.88,1.31,4.21c0,1.34-0.23,2.96-1.31,4.19c-0.65,0.74-1.4,1.11-2.33,1.11
				C105.17,253.2,104.41,252.83,103.77,252.09z M104.71,244.81c-0.57,0.85-0.71,2.17-0.71,3.07c0,0.91,0.14,2.22,0.71,3.08
				c0.45,0.68,0.99,0.85,1.39,0.85c0.4,0,0.94-0.17,1.39-0.85c0.57-0.86,0.71-2.17,0.71-3.08c0-0.89-0.14-2.22-0.71-3.07
				c-0.45-0.68-0.99-0.85-1.39-0.85C105.69,243.96,105.15,244.13,104.71,244.81z"/>
		</g>
		<g>
			<path class="st5" d="M117.91,253.03H111l3.56-4.32c0.36-0.43,0.89-1.11,1.23-1.6c0.29-0.43,0.54-0.88,0.54-1.48
				c0-0.86-0.57-1.67-1.71-1.67c-1.16,0-1.76,0.89-1.82,1.87h-1.51c0.05-1,0.46-1.8,0.86-2.25c0.37-0.42,1.11-1,2.41-1
				c2.19,0,3.31,1.5,3.31,3.1c0,0.85-0.32,1.54-0.74,2.16c-0.37,0.55-0.85,1.13-1.46,1.85l-1.6,1.9h3.84V253.03z"/>
		</g>
		<g>
			<path class="st5" d="M120.96,244.2h-1.79l0.86-1.45h2.5v10.28h-1.57V244.2z"/>
		</g>
		<g>
			<path class="st5" d="M126.76,252.09c-1.08-1.23-1.31-2.85-1.31-4.19c0-1.33,0.23-2.98,1.31-4.21c0.65-0.74,1.42-1.11,2.33-1.11
				c0.91,0,1.68,0.37,2.33,1.11c1.08,1.23,1.31,2.88,1.31,4.21c0,1.34-0.23,2.96-1.31,4.19c-0.65,0.74-1.4,1.11-2.33,1.11
				C128.16,253.2,127.4,252.83,126.76,252.09z M127.7,244.81c-0.57,0.85-0.71,2.17-0.71,3.07c0,0.91,0.14,2.22,0.71,3.08
				c0.45,0.68,0.99,0.85,1.39,0.85c0.4,0,0.94-0.17,1.39-0.85c0.57-0.86,0.71-2.17,0.71-3.08c0-0.89-0.14-2.22-0.71-3.07
				c-0.45-0.68-0.99-0.85-1.39-0.85C128.68,243.96,128.15,244.13,127.7,244.81z"/>
		</g>
	</g>
	<g>
		<g>
			<path class="st5" d="M20.66,476.62v1.79l-1.45-0.86v-2.5H29.5v1.57H20.66z"/>
		</g>
		<g>
			<path class="st5" d="M19.35,470c0-0.56,0.42-0.97,0.97-0.97c0.56,0,0.97,0.42,0.97,0.97c0,0.55-0.42,0.97-0.97,0.97
				C19.77,470.97,19.35,470.56,19.35,470z M23.01,469.24h6.49v1.51h-6.49V469.24z"/>
		</g>
		<g>
			<path class="st5" d="M23.01,467.33v-1.51h0.6c-0.62-0.51-0.77-1.11-0.77-1.6c0-0.68,0.32-1.31,0.96-1.68
				c-0.77-0.54-0.96-1.36-0.96-1.93c0-0.79,0.37-1.48,1.02-1.85c0.22-0.12,0.69-0.34,1.63-0.34h4.01v1.51h-3.58
				c-0.72,0-1.02,0.08-1.16,0.14c-0.25,0.09-0.57,0.32-0.57,0.86c0,0.37,0.2,0.69,0.48,0.89c0.37,0.26,0.93,0.29,1.48,0.29h3.35
				v1.51h-3.58c-0.72,0-1.02,0.08-1.16,0.14c-0.25,0.09-0.57,0.32-0.57,0.86c0,0.37,0.2,0.69,0.48,0.89
				c0.37,0.26,0.93,0.29,1.48,0.29h3.35v1.51H23.01z"/>
		</g>
		<g>
			<path class="st5" d="M33.03,455v1.51H23.01V455h0.71c-0.66-0.55-0.88-1.28-0.88-1.93c0-1.71,1.31-3.16,3.38-3.16
				c2.19,0,3.49,1.6,3.49,3.15c0,0.36-0.12,1.27-0.96,1.94H33.03z M26.29,455.09c1.36,0,2.05-0.88,2.05-1.84
				c0-1.09-0.94-1.8-2.07-1.8c-1.16,0-2.08,0.71-2.08,1.8C24.19,454.21,24.87,455.09,26.29,455.09z"/>
		</g>
		<g>
			<path class="st5" d="M17.7,441.18l0.56-1.23l14.53,8.11l-0.56,1.23L17.7,441.18z"/>
		</g>
		<g>
			<path class="st5" d="M19.21,436.99l6.88-2.71l-7.37-2.78l7.37-2.68l-6.88-2.81v-1.7l10.95,4.6l-7.29,2.68l7.29,2.71l-10.95,4.38
				V436.99z"/>
		</g>
		<g>
			<path class="st5" d="M18.26,423.76v-1.51h5.3c-0.66-0.65-0.73-1.36-0.73-1.74c0-1.19,0.62-1.73,0.88-1.91
				c0.59-0.4,1.34-0.42,1.8-0.42h3.98v1.51h-3.84c-0.39,0-0.8,0-1.13,0.29c-0.18,0.17-0.34,0.46-0.34,0.85
				c0,0.51,0.25,0.91,0.54,1.11c0.31,0.22,0.8,0.31,1.63,0.31h3.13v1.51H18.26z"/>
		</g>
		<g>
			<path class="st5" d="M21.62,404.78c-1.03,1.14-1.14,2.2-1.14,2.79c0,2.24,1.65,3.75,3.92,3.75c2.17,0,3.85-1.57,3.85-3.76
				c0-1.23-0.63-2.19-1.19-2.78h1.87c0.62,1.03,0.77,2.11,0.77,2.82c0,1.87-0.85,3.04-1.42,3.64c-1.13,1.2-2.44,1.65-3.89,1.65
				c-1.9,0-3.21-0.79-4.02-1.65c-1-1.06-1.34-2.3-1.34-3.72c0-0.94,0.17-1.85,0.74-2.74H21.62z"/>
		</g>
		<g>
			<path class="st5" d="M18.26,401.6H29.5v1.51H18.26V401.6z"/>
		</g>
		<g>
			<path class="st5" d="M27.83,398.79c0-0.51,0.42-0.93,0.93-0.93c0.51,0,0.93,0.42,0.93,0.93s-0.42,0.93-0.93,0.93
				C28.25,399.72,27.83,399.3,27.83,398.79z"/>
		</g>
		<g>
			<path class="st5" d="M19.21,394.15c0-1.33,0.17-2.16,0.8-2.84c0.52-0.55,1.19-0.82,2.04-0.82c0.4,0,0.82,0.06,1.22,0.31
				c0.4,0.23,0.6,0.54,0.71,0.77c0.05-0.18,0.22-0.82,0.74-1.33c0.59-0.55,1.3-0.68,1.93-0.68c0.74,0,1.33,0.19,1.85,0.68
				c0.86,0.82,1,2.1,1,2.88v2.58H19.21V394.15z M23.64,394.14v-0.48c0-0.39-0.05-0.91-0.4-1.28c-0.34-0.36-0.82-0.4-1.17-0.4
				c-0.31,0-0.68,0.05-0.99,0.37c-0.34,0.35-0.39,0.8-0.39,1.25v0.54H23.64z M28.02,394.14v-0.96c0-0.45-0.08-1.16-0.4-1.56
				c-0.25-0.31-0.68-0.51-1.14-0.51c-0.42,0-0.82,0.15-1.08,0.42c-0.42,0.43-0.46,1.06-0.46,1.62v0.99H28.02z"/>
		</g>
		<g>
			<path class="st5" d="M21.5,350.83c-0.23,0.09-0.45,0.23-0.65,0.46c-0.26,0.32-0.37,0.66-0.37,1.11c0,0.96,0.57,1.45,1.23,1.45
				c0.31,0,0.85-0.11,1.25-1.11l0.42-1.03c0.77-1.9,1.85-2.42,3.02-2.42c1.96,0,3.3,1.39,3.3,3.32c0,1.19-0.45,1.9-1.03,2.42
				c-0.62,0.56-1.3,0.8-2,0.86l-0.34-1.56c0.51,0,0.99-0.19,1.31-0.43c0.37-0.29,0.62-0.72,0.62-1.34c0-0.96-0.69-1.7-1.73-1.7
				c-1.05,0-1.48,0.8-1.76,1.48l-0.42,0.99c-0.36,0.85-1.06,2.1-2.61,2.1c-1.39,0-2.71-1.08-2.71-3.01c0-1.11,0.42-1.74,0.69-2.07
				c0.25-0.28,0.6-0.57,1.03-0.79L21.5,350.83z"/>
		</g>
		<g>
			<path class="st5" d="M29.5,347.31H18.52l7.82-7.46h-7.12v-1.57h10.92l-7.82,7.46h7.19V347.31z"/>
		</g>
		<g>
			<path class="st5" d="M22.84,335.19c0-0.51,0.42-0.93,0.93-0.93s0.93,0.42,0.93,0.93c0,0.51-0.42,0.93-0.93,0.93
				S22.84,335.7,22.84,335.19z M27.85,335.19c0-0.51,0.42-0.93,0.93-0.93s0.93,0.42,0.93,0.93c0,0.51-0.42,0.93-0.93,0.93
				S27.85,335.7,27.85,335.19z"/>
		</g>
		<g>
			<path class="st5" d="M24.13,329.95l-4.92,2.84v-1.76l3.48-2l-3.48-2.05v-1.76l4.92,2.96l5.37-3.1v1.76l-3.93,2.25l3.93,2.34v1.76
				L24.13,329.95z"/>
		</g>
		<g>
			<path class="st5" d="M28.56,322.87c-1.23,1.08-2.85,1.31-4.19,1.31c-1.33,0-2.98-0.23-4.21-1.31c-0.74-0.65-1.11-1.42-1.11-2.33
				c0-0.91,0.37-1.68,1.11-2.33c1.23-1.08,2.88-1.31,4.21-1.31c1.34,0,2.96,0.23,4.19,1.31c0.74,0.65,1.11,1.4,1.11,2.33
				C29.67,321.47,29.3,322.23,28.56,322.87z M21.28,321.93c0.85,0.57,2.17,0.71,3.07,0.71c0.91,0,2.22-0.14,3.08-0.71
				c0.68-0.45,0.85-0.99,0.85-1.39c0-0.4-0.17-0.94-0.85-1.39c-0.86-0.57-2.17-0.71-3.08-0.71c-0.9,0-2.22,0.14-3.07,0.71
				c-0.68,0.45-0.85,0.99-0.85,1.39C20.43,320.95,20.6,321.49,21.28,321.93z"/>
		</g>
		<g>
			<path class="st5" d="M28.56,314.11c-1.23,1.08-2.85,1.31-4.19,1.31c-1.33,0-2.98-0.23-4.21-1.31c-0.74-0.65-1.11-1.42-1.11-2.33
				c0-0.91,0.37-1.68,1.11-2.33c1.23-1.08,2.88-1.31,4.21-1.31c1.34,0,2.96,0.23,4.19,1.31c0.74,0.65,1.11,1.4,1.11,2.33
				C29.67,312.71,29.3,313.47,28.56,314.11z M21.28,313.17c0.85,0.57,2.17,0.71,3.07,0.71c0.91,0,2.22-0.14,3.08-0.71
				c0.68-0.45,0.85-0.99,0.85-1.39c0-0.4-0.17-0.94-0.85-1.39c-0.86-0.57-2.17-0.71-3.08-0.71c-0.9,0-2.22,0.14-3.07,0.71
				c-0.68,0.45-0.85,0.99-0.85,1.39C20.43,312.19,20.6,312.73,21.28,313.17z"/>
		</g>
		<g>
			<path class="st5" d="M28.56,305.36c-1.23,1.08-2.85,1.31-4.19,1.31c-1.33,0-2.98-0.23-4.21-1.31c-0.74-0.65-1.11-1.42-1.11-2.33
				c0-0.91,0.37-1.68,1.11-2.33c1.23-1.08,2.88-1.31,4.21-1.31c1.34,0,2.96,0.23,4.19,1.31c0.74,0.65,1.11,1.4,1.11,2.33
				C29.67,303.95,29.3,304.71,28.56,305.36z M21.28,304.42c0.85,0.57,2.17,0.71,3.07,0.71c0.91,0,2.22-0.14,3.08-0.71
				c0.68-0.45,0.85-0.99,0.85-1.39c0-0.4-0.17-0.94-0.85-1.39c-0.86-0.57-2.17-0.71-3.08-0.71c-0.9,0-2.22,0.14-3.07,0.71
				c-0.68,0.45-0.85,0.99-0.85,1.39C20.43,303.43,20.6,303.97,21.28,304.42z"/>
		</g>
		<g>
			<path class="st5" d="M28.56,296.6c-1.23,1.08-2.85,1.31-4.19,1.31c-1.33,0-2.98-0.23-4.21-1.31c-0.74-0.65-1.11-1.42-1.11-2.33
				c0-0.91,0.37-1.68,1.11-2.33c1.23-1.08,2.88-1.31,4.21-1.31c1.34,0,2.96,0.23,4.19,1.31c0.74,0.65,1.11,1.4,1.11,2.33
				C29.67,295.2,29.3,295.95,28.56,296.6z M21.28,295.66c0.85,0.57,2.17,0.71,3.07,0.71c0.91,0,2.22-0.14,3.08-0.71
				c0.68-0.45,0.85-0.99,0.85-1.39c0-0.4-0.17-0.94-0.85-1.39c-0.86-0.57-2.17-0.71-3.08-0.71c-0.9,0-2.22,0.14-3.07,0.71
				c-0.68,0.45-0.85,0.99-0.85,1.39C20.43,294.67,20.6,295.21,21.28,295.66z"/>
		</g>
		<g>
			<path class="st5" d="M28.56,287.84c-1.23,1.08-2.85,1.31-4.19,1.31c-1.33,0-2.98-0.23-4.21-1.31c-0.74-0.65-1.11-1.42-1.11-2.33
				c0-0.91,0.37-1.68,1.11-2.33c1.23-1.08,2.88-1.31,4.21-1.31c1.34,0,2.96,0.23,4.19,1.31c0.74,0.65,1.11,1.4,1.11,2.33
				C29.67,286.44,29.3,287.19,28.56,287.84z M21.28,286.9c0.85,0.57,2.17,0.71,3.07,0.71c0.91,0,2.22-0.14,3.08-0.71
				c0.68-0.45,0.85-0.99,0.85-1.39c0-0.4-0.17-0.94-0.85-1.39c-0.86-0.57-2.17-0.71-3.08-0.71c-0.9,0-2.22,0.14-3.07,0.71
				c-0.68,0.45-0.85,0.99-0.85,1.39C20.43,285.91,20.6,286.45,21.28,286.9z"/>
		</g>
		<g>
			<path class="st5" d="M29.01,278.88l-3.1-2.42c0.05,0.2,0.06,0.37,0.06,0.56c0,1.22-0.54,1.99-0.96,2.41
				c-0.52,0.52-1.28,0.94-2.34,0.94c-1.03,0-1.94-0.4-2.57-1.02c-0.66-0.65-1.05-1.51-1.05-2.65c0-1.4,0.57-2.22,1.02-2.65
				s1.19-0.89,2.33-0.89c0.74,0,1.33,0.17,1.96,0.49c0.77,0.39,1.23,0.79,1.84,1.25l3.67,2.85L29.01,278.88z M24.01,275.29
				c-0.4-0.39-0.99-0.6-1.53-0.6c-0.55,0-1.09,0.22-1.46,0.6c-0.37,0.39-0.59,0.94-0.59,1.46c0,0.57,0.26,1.13,0.59,1.46
				c0.34,0.34,0.88,0.6,1.51,0.6c0.57,0,1.14-0.22,1.53-0.6c0.32-0.34,0.57-0.88,0.57-1.45C24.63,276.25,24.43,275.69,24.01,275.29z
				"/>
		</g>
		<g>
			<path class="st5" d="M29.01,270.12l-3.1-2.42c0.05,0.2,0.06,0.37,0.06,0.56c0,1.22-0.54,1.99-0.96,2.41
				c-0.52,0.52-1.28,0.94-2.34,0.94c-1.03,0-1.94-0.4-2.57-1.02c-0.66-0.65-1.05-1.51-1.05-2.65c0-1.4,0.57-2.22,1.02-2.65
				s1.19-0.89,2.33-0.89c0.74,0,1.33,0.17,1.96,0.49c0.77,0.39,1.23,0.79,1.84,1.25l3.67,2.85L29.01,270.12z M24.01,266.53
				c-0.4-0.39-0.99-0.6-1.53-0.6c-0.55,0-1.09,0.22-1.46,0.6c-0.37,0.39-0.59,0.94-0.59,1.46c0,0.57,0.26,1.13,0.59,1.46
				c0.34,0.34,0.88,0.6,1.51,0.6c0.57,0,1.14-0.22,1.53-0.6c0.32-0.34,0.57-0.88,0.57-1.45C24.63,267.49,24.43,266.93,24.01,266.53z
				"/>
		</g>
	</g>
	<g>
		<g>
			<path class="st5" d="M126.11,461.79c-1.23,1.08-2.85,1.31-4.19,1.31c-1.33,0-2.98-0.23-4.21-1.31c-0.74-0.65-1.11-1.42-1.11-2.33
				c0-0.91,0.37-1.68,1.11-2.33c1.23-1.08,2.88-1.31,4.21-1.31c1.34,0,2.96,0.23,4.19,1.31c0.74,0.65,1.11,1.4,1.11,2.33
				C127.22,460.39,126.85,461.14,126.11,461.79z M118.83,460.85c0.85,0.57,2.17,0.71,3.07,0.71c0.91,0,2.22-0.14,3.08-0.71
				c0.68-0.45,0.85-0.99,0.85-1.39c0-0.4-0.17-0.94-0.85-1.39c-0.86-0.57-2.17-0.71-3.08-0.71c-0.9,0-2.22,0.14-3.07,0.71
				c-0.68,0.45-0.85,0.99-0.85,1.39C117.98,459.86,118.15,460.4,118.83,460.85z"/>
		</g>
		<g>
			<path class="st5" d="M125.39,453.23c0-0.51,0.42-0.93,0.93-0.93s0.93,0.42,0.93,0.93s-0.42,0.93-0.93,0.93
				S125.39,453.74,125.39,453.23z"/>
		</g>
		<g>
			<path class="st5" d="M127.05,443.95v6.91l-4.32-3.56c-0.43-0.36-1.11-0.89-1.6-1.23c-0.43-0.29-0.88-0.54-1.48-0.54
				c-0.86,0-1.67,0.57-1.67,1.71c0,1.16,0.89,1.76,1.87,1.82v1.51c-1-0.05-1.8-0.46-2.25-0.86c-0.42-0.37-1-1.11-1-2.41
				c0-2.19,1.5-3.31,3.1-3.31c0.85,0,1.54,0.32,2.16,0.74c0.56,0.37,1.13,0.85,1.85,1.46l1.9,1.6v-3.84H127.05z"/>
		</g>
		<g>
			<path class="st5" d="M118.22,435.63v3.18l1.71,0.51c-0.02-0.15-0.03-0.32-0.03-0.48c0-0.86,0.29-1.74,0.91-2.37
				c0.48-0.49,1.3-1,2.64-1c1.13,0,2.04,0.35,2.73,1.05c0.8,0.82,1.05,1.8,1.05,2.85c0,0.6-0.08,1.31-0.46,1.97
				c-0.09,0.15-0.45,0.74-1.19,1.22l-0.99-1.19c0.08-0.03,0.59-0.31,0.9-0.79c0.23-0.34,0.35-0.82,0.35-1.34
				c0-0.83-0.32-1.31-0.57-1.57c-0.31-0.31-0.86-0.66-1.74-0.66c-0.85,0-1.36,0.29-1.67,0.62c-0.48,0.51-0.57,1.19-0.57,1.68
				c0,0.45,0.06,0.79,0.22,1.2c0.12,0.32,0.26,0.62,0.46,0.91l-5.2-1.53v-4.26H118.22z"/>
		</g>
		<g>
			<path class="st5" d="M122.98,433.45v-3.7h1.57v3.7H122.98z"/>
		</g>
		<g>
			<path class="st5" d="M118.22,421.62v3.18l1.71,0.51c-0.02-0.15-0.03-0.32-0.03-0.48c0-0.86,0.29-1.74,0.91-2.37
				c0.48-0.49,1.3-1,2.64-1c1.13,0,2.04,0.36,2.73,1.05c0.8,0.82,1.05,1.8,1.05,2.85c0,0.6-0.08,1.31-0.46,1.97
				c-0.09,0.15-0.45,0.74-1.19,1.22l-0.99-1.19c0.08-0.03,0.59-0.31,0.9-0.79c0.23-0.34,0.35-0.82,0.35-1.34
				c0-0.83-0.32-1.31-0.57-1.57c-0.31-0.31-0.86-0.66-1.74-0.66c-0.85,0-1.36,0.29-1.67,0.62c-0.48,0.51-0.57,1.19-0.57,1.68
				c0,0.45,0.06,0.79,0.22,1.2c0.12,0.32,0.26,0.62,0.46,0.91l-5.2-1.53v-4.26H118.22z"/>
		</g>
		<g>
			<path class="st5" d="M129.78,417.54c-1.05,0.49-2.02,0.8-3.11,1.05c-1.45,0.32-2.54,0.4-3.93,0.4c-1.43,0-2.58-0.09-4.09-0.43
				c-1.11-0.25-2-0.54-3.01-1.02l0.54-1.39c0.91,0.4,1.94,0.74,2.79,0.93c1.11,0.25,2.47,0.37,3.76,0.37c1.68,0,2.87-0.19,3.64-0.36
				c0.86-0.2,1.96-0.55,2.87-0.94L129.78,417.54z"/>
		</g>
		<g>
			<path class="st5" d="M123.66,408.32v-1.11h1.45v1.11h1.94v1.51h-1.94v5.09l-9.1-6.6H123.66z M123.69,409.83h-3.31l3.31,2.34
				V409.83z"/>
		</g>
		<g>
			<path class="st5" d="M126.11,404.42c-1.23,1.08-2.85,1.31-4.19,1.31c-1.33,0-2.98-0.23-4.21-1.31c-0.74-0.65-1.11-1.42-1.11-2.33
				c0-0.91,0.37-1.68,1.11-2.33c1.23-1.08,2.88-1.31,4.21-1.31c1.34,0,2.96,0.23,4.19,1.31c0.74,0.65,1.11,1.4,1.11,2.33
				C127.22,403.01,126.85,403.77,126.11,404.42z M118.83,403.48c0.85,0.57,2.17,0.71,3.07,0.71c0.91,0,2.22-0.14,3.08-0.71
				c0.68-0.45,0.85-0.99,0.85-1.39c0-0.4-0.17-0.94-0.85-1.39c-0.86-0.57-2.17-0.71-3.08-0.71c-0.9,0-2.22,0.14-3.07,0.71
				c-0.68,0.45-0.85,0.99-0.85,1.39C117.98,402.49,118.15,403.03,118.83,403.48z"/>
		</g>
		<g>
			<path class="st5" d="M129.24,396.78c-0.91-0.39-2-0.74-2.87-0.94c-0.77-0.17-1.96-0.35-3.64-0.35c-1.3,0-2.65,0.12-3.76,0.37
				c-0.85,0.18-1.88,0.52-2.79,0.93l-0.54-1.39c1-0.48,1.9-0.77,3.01-1.02c1.51-0.34,2.65-0.43,4.09-0.43c1.39,0,2.48,0.08,3.93,0.4
				c1.09,0.25,2.07,0.56,3.11,1.05L129.24,396.78z"/>
		</g>
		<g>
			<path class="st5" d="M124.57,385.44v4.39l2.48,1.13v1.7l-10.89-5.12l10.89-4.87v1.7L124.57,385.44z M123.09,386.07l-3.49,1.53
				l3.49,1.59V386.07z"/>
		</g>
		<g>
			<path class="st5" d="M127.05,371.57v6.91l-4.32-3.56c-0.43-0.36-1.11-0.9-1.6-1.23c-0.43-0.29-0.88-0.54-1.48-0.54
				c-0.86,0-1.67,0.57-1.67,1.71c0,1.16,0.89,1.76,1.87,1.82v1.51c-1-0.05-1.8-0.46-2.25-0.86c-0.42-0.37-1-1.11-1-2.4
				c0-2.19,1.5-3.32,3.1-3.32c0.85,0,1.54,0.32,2.16,0.74c0.56,0.37,1.13,0.85,1.85,1.46l1.9,1.6v-3.84H127.05z"/>
		</g>
		<g>
			<path class="st5" d="M119.39,369.2c-0.83-0.05-1.54-0.4-2-0.88c-0.68-0.71-0.79-1.57-0.79-2.25c0-0.79,0.15-1.56,0.85-2.22
				c0.55-0.54,1.22-0.74,1.96-0.74c0.49,0,0.93,0.09,1.36,0.36c0.45,0.28,0.71,0.63,0.86,0.93c0.2-0.52,0.55-0.85,0.82-1.02
				c0.43-0.29,1-0.43,1.59-0.43c1.02,0,1.8,0.39,2.3,0.88c0.74,0.74,0.89,1.71,0.89,2.51c0,0.79-0.15,1.63-0.86,2.3
				c-0.49,0.46-1.31,0.8-2.1,0.88V368c0.46-0.08,0.86-0.29,1.11-0.55c0.2-0.22,0.46-0.6,0.46-1.25c0-0.48-0.18-0.93-0.43-1.2
				c-0.28-0.29-0.76-0.54-1.45-0.54c-0.34,0-0.83,0.06-1.22,0.46c-0.43,0.45-0.46,1-0.46,1.33v0.31h-1.33v-0.22
				c0-0.66-0.22-1.08-0.45-1.31c-0.25-0.25-0.63-0.4-1.09-0.4c-0.54,0-0.86,0.23-1.03,0.4c-0.34,0.35-0.39,0.79-0.39,1.09
				c0,0.37,0.06,0.8,0.42,1.14c0.37,0.36,0.93,0.43,0.99,0.43V369.2z"/>
		</g>
		<g>
			<path class="st5" d="M126.11,359.44c-1.23,1.08-2.85,1.31-4.19,1.31c-1.33,0-2.98-0.23-4.21-1.31c-0.74-0.65-1.11-1.42-1.11-2.33
				c0-0.91,0.37-1.68,1.11-2.33c1.23-1.08,2.88-1.31,4.21-1.31c1.34,0,2.96,0.23,4.19,1.31c0.74,0.65,1.11,1.4,1.11,2.33
				C127.22,358.04,126.85,358.79,126.11,359.44z M118.83,358.5c0.85,0.57,2.17,0.71,3.07,0.71c0.91,0,2.22-0.14,3.08-0.71
				c0.68-0.45,0.85-0.99,0.85-1.39c0-0.4-0.17-0.94-0.85-1.39c-0.86-0.57-2.17-0.71-3.08-0.71c-0.9,0-2.22,0.14-3.07,0.71
				c-0.68,0.45-0.85,0.99-0.85,1.39C117.98,357.51,118.15,358.05,118.83,358.5z"/>
		</g>
		<g>
			<path class="st5" d="M116.77,350.97l7.17-2.87l-7.17-2.87v-1.7l10.95,4.56l-10.95,4.56V350.97z"/>
		</g>
	</g>
	<g>
		<path class="st4" d="M62.23,58.8c0-8.54,6.18-15.62,14.31-17.06c-0.99-0.18-2-0.28-3.04-0.28c-9.58,0-17.35,7.77-17.35,17.35
			s7.77,17.35,17.35,17.35c1.04,0,2.05-0.11,3.04-0.28C68.41,74.42,62.23,67.34,62.23,58.8z"/>
	</g>
	<g>
		<path class="st4" d="M104.09,58.8c0-8.54,6.18-15.62,14.31-17.06c-0.99-0.18-2-0.28-3.04-0.28C105.77,41.45,98,49.22,98,58.8
			s7.77,17.35,17.35,17.35c1.04,0,2.05-0.11,3.04-0.28C110.26,74.42,104.09,67.34,104.09,58.8z"/>
	</g>
	<g>
		<circle class="st73" cx="96.38" cy="21.91" r="8.68"/>
	</g>
	<g>
		<path class="st74" d="M90.74,21.91c0-4.28,3.09-7.82,7.16-8.54c-0.5-0.09-1-0.14-1.52-0.14c-4.8,0-8.68,3.89-8.68,8.68
			s3.89,8.68,8.68,8.68c0.52,0,1.03-0.05,1.52-0.14C93.83,29.74,90.74,26.19,90.74,21.91z"/>
	</g>
	<g>
		<g>
			<circle class="st3" cx="43" cy="598.61" r="23.05"/>
		</g>
		<g>
			<path class="st4" d="M28.03,598.61c0-11.35,8.21-20.76,19.01-22.67c-1.31-0.23-2.66-0.38-4.04-0.38
				c-12.73,0-23.05,10.32-23.05,23.05S30.27,621.66,43,621.66c1.38,0,2.73-0.14,4.04-0.38C36.24,619.37,28.03,609.96,28.03,598.61z"
				/>
		</g>
	</g>
	<g>
		<g>
			<circle class="st3" cx="104.13" cy="598.61" r="23.05"/>
		</g>
		<g>
			<path class="st4" d="M89.16,598.61c0-11.35,8.21-20.76,19.01-22.67c-1.31-0.23-2.66-0.38-4.04-0.38
				c-12.73,0-23.05,10.32-23.05,23.05s10.32,23.05,23.05,23.05c1.38,0,2.73-0.14,4.04-0.38C97.37,619.37,89.16,609.96,89.16,598.61z
				"/>
		</g>
	</g>
	<g>
		<g>
			<circle class="st3" cx="43" cy="690.2" r="23.05"/>
		</g>
		<g>
			<path class="st4" d="M28.03,690.2c0-11.35,8.21-20.76,19.01-22.67c-1.31-0.23-2.66-0.38-4.04-0.38
				c-12.73,0-23.05,10.32-23.05,23.05S30.27,713.25,43,713.25c1.38,0,2.73-0.14,4.04-0.38C36.24,710.96,28.03,701.55,28.03,690.2z"
				/>
		</g>
	</g>
	<g>
		<g>
			<circle class="st3" cx="104.13" cy="690.2" r="23.05"/>
		</g>
		<g>
			<path class="st4" d="M89.16,690.2c0-11.35,8.21-20.76,19.01-22.67c-1.31-0.23-2.66-0.38-4.04-0.38
				c-12.73,0-23.05,10.32-23.05,23.05s10.32,23.05,23.05,23.05c1.38,0,2.73-0.14,4.04-0.38C97.37,710.96,89.16,701.55,89.16,690.2z"
				/>
		</g>
	</g>
	<g>
		<g>
			<path class="st5" d="M104.13,524.3c-0.99,0-1.95-0.19-2.86-0.55c-0.37-0.15-0.55-0.57-0.4-0.94c0.15-0.37,0.57-0.55,0.94-0.4
				c0.74,0.3,1.52,0.45,2.32,0.45c3.41,0,6.18-2.77,6.18-6.18c0-3.41-2.77-6.18-6.18-6.18c-0.8,0-1.58,0.15-2.32,0.45
				c-0.37,0.15-0.79-0.03-0.94-0.4c-0.15-0.37,0.03-0.79,0.4-0.94c0.91-0.37,1.87-0.55,2.86-0.55c4.21,0,7.63,3.42,7.63,7.63
				C111.76,520.88,108.33,524.3,104.13,524.3z"/>
		</g>
		<g>
			<path class="st5" d="M104.13,528.62c-1.92,0-3.83-0.46-5.51-1.35c-0.35-0.18-0.49-0.62-0.31-0.97c0.18-0.35,0.62-0.49,0.98-0.31
				c1.51,0.78,3.14,1.18,4.85,1.18c5.79,0,10.5-4.71,10.5-10.5c0-5.79-4.71-10.5-10.5-10.5c-2.72,0-5.31,1.04-7.27,2.92
				c-0.29,0.28-0.74,0.27-1.02-0.02c-0.28-0.29-0.27-0.75,0.02-1.02c2.23-2.15,5.17-3.33,8.27-3.33c6.59,0,11.95,5.36,11.95,11.95
				C116.07,523.26,110.71,528.62,104.13,528.62z"/>
		</g>
		<g>
			<path class="st5" d="M92.9,514.8h-5.18c-0.4,0-0.72-0.32-0.72-0.72c0-0.4,0.32-0.72,0.72-0.72h5.18c0.4,0,0.72,0.32,0.72,0.72
				C93.62,514.48,93.3,514.8,92.9,514.8z"/>
		</g>
		<g>
			<path class="st5" d="M91.05,532.35c-0.26,0-0.52-0.02-0.78-0.07l-13.63-2.94v-17.47l0.44-0.19c0.89-0.37,1.74-0.96,2.57-1.53
				c1.41-0.97,2.87-1.98,4.62-1.98h6.91c1.35,0,2.45,1.1,2.45,2.45v2.73h10.5c1.83,0,3.31,1.49,3.31,3.31
				c0,1.83-1.49,3.31-3.31,3.31h-7.18l-1.8,9.01C94.75,530.98,93,532.35,91.05,532.35z M78.08,528.17l12.47,2.69
				c1.45,0.28,2.88-0.69,3.17-2.15l2.03-10.18h8.36c1.03,0,1.87-0.84,1.87-1.87c0-1.03-0.84-1.87-1.87-1.87H92.18v-4.18
				c0-0.55-0.45-1-1-1h-6.91c-1.3,0-2.51,0.84-3.8,1.72c-0.76,0.52-1.53,1.06-2.39,1.47V528.17z"/>
		</g>
	</g>
	<g>
		<g>
			<g>
				<g>
					<path class="st5" d="M20.4,638.5h-8.61v-8.95H5.08l11.01-14.45l11.01,14.45H20.4V638.5z M13.24,637.06h5.72v-8.95h5.23
						l-8.09-10.62L8,628.1h5.23V637.06z"/>
				</g>
			</g>
			<g>
				<g>
					<path class="st5" d="M11.25,641.41h1.67l1.78,5.3c0.52,1.5,0.97,3.09,1.37,4.79c-0.14-1.03-0.25-1.96-0.32-2.79
						c-0.07-0.83-0.1-1.61-0.1-2.35v-4.96h1.8v13.28h-1.68l-2-5.98c-0.18-0.56-0.36-1.13-0.52-1.71c-0.16-0.58-0.31-1.2-0.45-1.84
						c-0.01-0.08-0.03-0.18-0.06-0.29c-0.03-0.11-0.06-0.25-0.09-0.4c0.02,0.15,0.03,0.28,0.04,0.38c0.01,0.11,0.02,0.2,0.03,0.27
						l0.09,1.35l0.09,1.64c0.01,0.09,0.01,0.2,0.01,0.34c0,0.13,0,0.28,0,0.45l0.09,5.79h-1.76V641.41z"/>
				</g>
				<g>
					<path class="st5" d="M20.17,642.01c0.3,0,0.56,0.11,0.77,0.33c0.22,0.22,0.33,0.48,0.33,0.78c0,0.31-0.11,0.57-0.33,0.79
						c-0.22,0.22-0.48,0.33-0.79,0.33s-0.57-0.11-0.79-0.33c-0.21-0.21-0.32-0.48-0.32-0.8c0-0.3,0.11-0.56,0.33-0.77
						C19.6,642.12,19.87,642.01,20.17,642.01z M19.39,645.79h1.65v8.9h-1.65V645.79z"/>
				</g>
			</g>
		</g>
		<g>
			<g>
				<g>
					<path class="st5" d="M130.91,638.97l-11.01-14.45h6.71v-8.95h8.61v8.95h6.71L130.91,638.97z M122.82,625.97l8.09,10.62
						l8.09-10.62h-5.23v-8.95h-5.72v8.95H122.82z"/>
				</g>
			</g>
			<g>
				<g>
					<path class="st5" d="M124.41,641.41h1.67l1.78,5.3c0.52,1.5,0.97,3.09,1.37,4.79c-0.14-1.03-0.25-1.96-0.32-2.79
						c-0.07-0.83-0.1-1.61-0.1-2.35v-4.96h1.8v13.28h-1.68l-2-5.98c-0.18-0.56-0.36-1.13-0.52-1.71c-0.16-0.58-0.31-1.2-0.45-1.84
						c-0.01-0.08-0.03-0.18-0.06-0.29c-0.03-0.11-0.06-0.25-0.09-0.4c0.02,0.15,0.03,0.28,0.04,0.38c0.01,0.11,0.02,0.2,0.03,0.27
						l0.09,1.35l0.09,1.64c0.01,0.09,0.01,0.2,0.01,0.34c0,0.13,0,0.28,0,0.45l0.09,5.79h-1.76V641.41z"/>
				</g>
				<g>
					<path class="st5" d="M137.83,650.32c0,3.01-0.93,4.52-2.8,4.52c-1.86,0-2.8-1.53-2.8-4.58c0-3.07,0.93-4.6,2.79-4.6
						c0.48,0,0.9,0.09,1.25,0.28c0.35,0.18,0.64,0.47,0.87,0.85c0.23,0.38,0.4,0.87,0.51,1.45
						C137.77,648.81,137.83,649.51,137.83,650.32z M136.12,650.27c0-1.17-0.08-1.98-0.23-2.44c-0.15-0.46-0.43-0.7-0.83-0.7
						c-0.39,0-0.67,0.23-0.83,0.69c-0.15,0.46-0.23,1.26-0.23,2.4c0,1.14,0.08,1.94,0.23,2.39c0.17,0.46,0.44,0.69,0.83,0.69
						s0.66-0.23,0.82-0.68C136.04,652.2,136.12,651.41,136.12,650.27z"/>
				</g>
			</g>
		</g>
	</g>
	<g>
		<g>
			<g>
				<g>
					<path class="st5" d="M20.4,729.53h-8.61v-8.95H5.08l11.01-14.45l11.01,14.45H20.4V729.53z M13.24,728.08h5.72v-8.95h5.23
						l-8.09-10.62L8,719.13h5.23V728.08z"/>
				</g>
			</g>
			<g>
				<g>
					<path class="st5" d="M12.45,732.44h1.79v11.77h2.93v1.51h-4.71V732.44z"/>
				</g>
				<g>
					<path class="st5" d="M18.96,733.03c0.3,0,0.56,0.11,0.77,0.33c0.22,0.22,0.33,0.48,0.33,0.78c0,0.31-0.11,0.57-0.33,0.79
						c-0.22,0.22-0.48,0.33-0.79,0.33s-0.57-0.11-0.79-0.33c-0.21-0.21-0.32-0.48-0.32-0.8c0-0.3,0.11-0.56,0.33-0.77
						C18.4,733.14,18.66,733.03,18.96,733.03z M18.19,736.82h1.65v8.9h-1.65V736.82z"/>
				</g>
			</g>
		</g>
		<g>
			<g>
				<g>
					<path class="st5" d="M130.91,730l-11.01-14.45h6.71v-8.95h8.61v8.95h6.71L130.91,730z M122.82,716.99l8.09,10.62l8.09-10.62
						h-5.23v-8.95h-5.72v8.95H122.82z"/>
				</g>
			</g>
			<g>
				<g>
					<path class="st5" d="M125.62,732.44h1.79v11.77h2.93v1.51h-4.71V732.44z"/>
				</g>
				<g>
					<path class="st5" d="M136.61,741.34c0,3.01-0.93,4.52-2.8,4.52c-1.86,0-2.8-1.53-2.8-4.58c0-3.07,0.93-4.6,2.79-4.6
						c0.48,0,0.9,0.09,1.25,0.28c0.35,0.18,0.64,0.47,0.87,0.85s0.4,0.87,0.51,1.45C136.56,739.84,136.61,740.53,136.61,741.34z
						 M134.91,741.3c0-1.17-0.08-1.98-0.23-2.44c-0.15-0.46-0.43-0.7-0.83-0.7c-0.39,0-0.67,0.23-0.83,0.69
						c-0.15,0.46-0.23,1.26-0.23,2.4c0,1.14,0.08,1.94,0.23,2.39c0.17,0.46,0.44,0.69,0.83,0.69s0.66-0.23,0.82-0.68
						C134.83,743.22,134.91,742.44,134.91,741.3z"/>
				</g>
			</g>
		</g>
	</g>
	<g>
		<g>
			<circle class="st73" cx="50.55" cy="639.33" r="8.68"/>
		</g>
		<g>
			<path class="st74" d="M44.91,639.33c0-4.28,3.09-7.82,7.16-8.54c-0.5-0.09-1-0.14-1.52-0.14c-4.8,0-8.68,3.89-8.68,8.68
				c0,4.8,3.89,8.68,8.68,8.68c0.52,0,1.03-0.05,1.52-0.14C48,647.15,44.91,643.6,44.91,639.33z"/>
		</g>
	</g>
	<g>
		<g>
			<circle class="st73" cx="50.55" cy="730.91" r="8.68"/>
		</g>
		<g>
			<path class="st74" d="M44.91,730.91c0-4.28,3.09-7.82,7.16-8.54c-0.5-0.09-1-0.14-1.52-0.14c-4.8,0-8.68,3.89-8.68,8.68
				s3.89,8.68,8.68,8.68c0.52,0,1.03-0.05,1.52-0.14C48,738.73,44.91,735.18,44.91,730.91z"/>
		</g>
	</g>
	<g>
		<g>
			<path class="st3" d="M95.67,0c0,0-12.58,2.7-16.08,14.01c-2.75,7.55-9.99,12.95-18.5,12.95c-8.51,0-15.74-5.41-18.48-12.97
				l-0.01,0.03C39.09,2.7,26.51,0,26.51,0H95.67z"/>
		</g>
		<g>
			<path class="st75" d="M47.86,13.98l-0.01,0.03C44.35,2.7,31.77,0,31.77,0h-5.26c0,0,12.58,2.7,16.08,14.01l0.01-0.03
				c2.75,7.56,9.97,12.97,18.48,12.97c0.89,0,1.77-0.07,2.63-0.19C56.37,25.78,50.32,20.75,47.86,13.98z"/>
		</g>
		<g>
			<g>
				<polygon class="st76" points="68.02,12.9 79.3,12.9 79.3,3.42 68.02,3.42 65.83,1.22 65.83,0 56.35,0 56.35,1.22 55.23,2.33 
					66.91,14.01 				"/>
			</g>
			<g>
				<polygon class="st74" points="55.23,2.33 54.15,3.42 42.87,3.42 42.87,12.9 54.15,12.9 56.35,15.1 56.35,25.26 65.83,25.26 
					65.83,15.09 66.91,14.01 				"/>
			</g>
		</g>
	</g>
	<g>
		<g>
			<path class="st3" d="M120.49,660.19c0,0-12.58-2.7-16.08-14.01c-2.75-7.55-9.99-12.95-18.5-12.95c-8.51,0-15.74,5.41-18.48,12.97
				l-0.01-0.03c-3.5,11.31-16.08,14.01-16.08,14.01H120.49z"/>
		</g>
		<g>
			<path class="st75" d="M72.69,646.21l-0.01-0.03c-3.5,11.31-16.08,14.01-16.08,14.01h-5.26c0,0,12.58-2.7,16.08-14.01l0.01,0.03
				c2.75-7.56,9.97-12.97,18.48-12.97c0.89,0,1.77,0.07,2.63,0.19C81.2,634.41,75.15,639.44,72.69,646.21z"/>
		</g>
		<g>
			<g>
				<polygon class="st76" points="92.85,647.3 104.13,647.3 104.13,656.77 92.85,656.77 90.65,658.97 90.65,660.19 81.18,660.19 
					81.18,658.97 80.06,657.86 91.74,646.18 				"/>
			</g>
			<g>
				<polygon class="st74" points="80.06,657.86 78.98,656.77 67.7,656.77 67.7,647.3 78.97,647.3 81.18,645.1 81.18,634.94 
					90.65,634.94 90.65,645.1 91.74,646.18 				"/>
			</g>
		</g>
	</g>
	<g>
		<g>
			<path class="st3" d="M120.49,751.79c0,0-12.58-2.7-16.08-14.01c-2.75-7.55-9.99-12.95-18.5-12.95c-8.51,0-15.74,5.41-18.48,12.97
				l-0.01-0.03c-3.5,11.31-16.08,14.01-16.08,14.01H120.49z"/>
		</g>
		<g>
			<path class="st75" d="M72.69,737.81l-0.01-0.03c-3.5,11.31-16.08,14.01-16.08,14.01h-5.26c0,0,12.58-2.7,16.08-14.01l0.01,0.03
				c2.75-7.56,9.97-12.97,18.48-12.97c0.89,0,1.77,0.07,2.63,0.19C81.2,726.01,75.15,731.04,72.69,737.81z"/>
		</g>
		<g>
			<g>
				<polygon class="st76" points="92.85,738.89 104.13,738.89 104.13,748.37 92.85,748.37 90.65,750.57 90.65,751.79 81.18,751.79 
					81.18,750.57 80.06,749.45 91.74,737.78 				"/>
			</g>
			<g>
				<polygon class="st74" points="80.06,749.45 78.98,748.37 67.7,748.37 67.7,738.89 78.97,738.89 81.18,736.69 81.18,726.53 
					90.65,726.53 90.65,736.69 91.74,737.78 				"/>
			</g>
		</g>
	</g>
</g>
</svg>
